<svg aria-hidden="true" style="width:0;height:0;position:absolute;overflow:hidden" xmlns="http://www.w3.org/2000/svg"><defs><symbol id="icon-btn-open" viewBox="0 0 32 32"><path fill="#7eb101" style="fill:var(--color1,#7eb101)" d="M2.667 8.001c0-.737.597-1.334 1.334-1.334h24.002a1.334 1.334 0 1 1 0 2.668H4.001a1.334 1.334 0 0 1-1.334-1.334zm0 8.043a1.335 1.335 0 0 1 1.334-1.333h24.002l.039-.001a1.334 1.334 0 1 1 0 2.668l-.041-.001h.002H4.001a1.334 1.334 0 0 1-1.334-1.334zM4 22.754a1.334 1.334 0 0 0-.002 2.666h24.004l.039.001a1.334 1.334 0 1 0 0-2.668l-.041.001h.002H4z"/></symbol><symbol id="icon-logo" viewBox="0 0 41 32"><path fill="#ffe550" style="fill:var(--color2,#ffe550)" d="M14.144 6.458c1.011-1.982 3.836-1.982 4.847 0l1.28 2.51a2.729 2.729 0 0 0 1.98 1.45l.016.002 2.773.442c2.197.35 3.07 3.05 1.497 4.626l-1.978 1.983a2.725 2.725 0 0 0-.763 2.372l-.002-.016.437 2.773c.346 2.2-1.94 3.868-3.92 2.859L17.8 24.181c-.358-.186-.783-.296-1.232-.296s-.874.109-1.248.303l.015-.007-2.511 1.278c-1.98 1.009-4.267-.659-3.92-2.859l.437-2.773a2.725 2.725 0 0 0-.765-2.356l-1.979-1.983c-1.572-1.576-.699-4.276 1.497-4.626l2.773-.441a2.728 2.728 0 0 0 1.989-1.438l.007-.015 1.28-2.51z"/><path fill="#2c2c2c" style="fill:var(--color3,#2c2c2c)" d="m1.116 20.361-.021.005a76.868 76.868 0 0 0-.013 1.932c0 .157-.004.285-.01.384l.001.336c0 .105-.007.207-.021.308l.001-.012-.018.206c-.014.13-.042.201-.084.211-.092.022-.235-.049-.431-.212-.197-.17-.31-.319-.34-.447s-.038-1.06-.023-2.798c.021-1.74-.026-2.884-.14-3.433a.412.412 0 0 1 .014-.274l-.001.003c.036-.166.219-.321.55-.467.339-.147.843-.3 1.514-.459.678-.16 1.216-.25 1.614-.27.405-.021.623.032.652.16.021.085-.025.159-.137.223s-.211.117-.298.16c.121-.039.006.008-.109.054l-.239.085c-.145.049-.279.096-.403.14-.126.037-.288.09-.488.16-.193.068-.372.133-.536.194-.166.054-.39.133-.671.237s-.463.17-.546.197c.012.02.023.05.033.093.079.332.122 1.131.129 2.392a10.72 10.72 0 0 0 1.402-.366c.498-.162.804-.257.917-.284.269-.063.416-.039.443.074.052.22-.212.476-.791.771a8.607 8.607 0 0 1-1.95.697zm6.917-1.951a2.018 2.018 0 0 0-.282-.66l.005.008c-.13-.201-.281-.334-.452-.398-.455.25-.787.729-.992 1.435-.201.698-.236 1.32-.108 1.865s.343.854.644.924c.485-.219.834-.668 1.046-1.347.218-.687.265-1.297.139-1.828zm-2.764.755c.117-.611.33-1.14.643-1.588.318-.457.684-.734 1.102-.833.423-.1.819-.003 1.187.291.366.287.611.689.732 1.206.121.51.121 1.063.001 1.66a3.783 3.783 0 0 1-.72 1.58l.006-.009c-.349.449-.767.731-1.254.846-.361.086-.7-.01-1.019-.286s-.538-.669-.659-1.179c-.123-.517-.129-1.08-.019-1.689zm7.565-1.892a2.018 2.018 0 0 0-.282-.66l.005.008c-.129-.201-.281-.334-.452-.398-.455.25-.786.728-.992 1.435-.201.699-.236 1.32-.107 1.865.129.546.343.854.643.925.486-.22.835-.668 1.047-1.347.218-.687.265-1.296.138-1.828zm-2.764.755c.117-.611.331-1.14.643-1.588.318-.457.684-.734 1.102-.833.423-.1.82-.004 1.188.291.366.287.61.689.732 1.206.121.51.121 1.063.001 1.66a3.78 3.78 0 0 1-.72 1.579l.006-.009c-.349.449-.767.731-1.254.847-.361.085-.7-.01-1.019-.286s-.539-.669-.659-1.179c-.122-.517-.129-1.08-.019-1.689zm7.771-6.987c.113-.027.276.047.489.221.218.165.349.34.392.524s.079.729.107 1.635c.026.899.031 1.836.015 2.812-.02 2.188-.111 3.301-.273 3.34-.098.023-.223-.011-.371-.103-.143-.101-.226-.197-.247-.289s-.041-.282-.057-.57c-.524.872-1.045 1.369-1.561 1.491-.311.074-.627-.001-.948-.225-.314-.225-.508-.489-.579-.794-.105-.439-.111-.987-.02-1.644a5.612 5.612 0 0 1 .651-1.929l-.015.028c.327-.601.742-.961 1.243-1.079.502-.119.923.099 1.263.654.006-1.587-.077-2.819-.247-3.699-.05-.212.002-.337.158-.374zm.068 5.491c-.091-.382-.234-.689-.431-.919-.188-.232-.375-.326-.559-.283-.303.072-.57.333-.799.783a4.56 4.56 0 0 0-.454 1.453l-.003.024c-.07.525-.063.964.021 1.318a.398.398 0 0 0 .208.275l.002.001a.493.493 0 0 0 .359.038l-.004.001c.276-.065.599-.351.972-.858a3.581 3.581 0 0 0 .696-1.646l.002-.135-.012-.052zm6.764-.637c.137.581-.009 1.131-.438 1.652a3.028 3.028 0 0 1-1.663 1.011c-.671.159-1.267.117-1.787-.127-.522-.25-.819-.532-.892-.843-.051-.212-.012-.334.115-.364.113-.027.375.09.788.352.156.09.352.163.589.219.244.055.486.054.726-.004a2.377 2.377 0 0 0 1.224-.693c.329-.347.457-.669.387-.966-.045-.191-.23-.406-.555-.643a7.357 7.357 0 0 0-1.004-.619l-.042-.02a8.232 8.232 0 0 1-1.061-.677l.021.015c-.326-.244-.511-.455-.553-.632a1.669 1.669 0 0 1-.027-.596l-.001.009c.024-.215.068-.379.13-.491.203-.37.564-.751 1.083-1.143.526-.394.987-.638 1.383-.731a.738.738 0 0 1 .57.081l-.003-.002c.174.101.278.226.313.374.017.071-.044.145-.182.223s-.351.188-.638.331a5.216 5.216 0 0 0-.757.433l.017-.011c-.739.505-1.074.901-1.005 1.191.037.156.553.494 1.548 1.013.414.221.77.474 1.091.767L24.046 15c.346.3.555.598.625.895zm2.433.534c.032.135.126.183.281.147.268-.064.575-.215.922-.454.351-.247.548-.377.591-.386.127-.03.207.022.239.156.048.206-.108.493-.468.862-.353.368-.703.593-1.049.675-.339.08-.644.055-.913-.075-.271-.138-.43-.306-.477-.505a2.988 2.988 0 0 1-.051-.783c.011-.332.035-.767.071-1.307.042-.548.07-1 .082-1.354-.314.156-.527.248-.64.274s-.239-.003-.379-.09c-.134-.095-.214-.196-.239-.302-.04-.17.381-.442 1.262-.815a7.711 7.711 0 0 0-.178-1.606c-.05-.212-.005-.335.137-.369.12-.028.287.015.5.129.212.106.34.255.385.447s.065.542.058 1.052c.394-.131.711-.225.951-.281.425-.101.658-.058.702.126.025.106-.071.222-.287.348-.209.124-.663.348-1.363.67-.016.595-.052 1.28-.107 2.056-.057.769-.067 1.231-.03 1.387zm4.735-5.562c.318-.075.649.018.995.281.343.255.547.513.608.775.06.255.034.538-.079.849.11.086.174.167.193.246.047.198.081.549.103 1.052.03.502.051.829.065.983.021.152.036.276.043.371.006.089.009.177.007.268.014.183-.029.287-.128.311-.127.03-.258-.055-.396-.254a3.191 3.191 0 0 1-.343-.838c-.44.949-.928 1.487-1.465 1.614-.325.077-.679.015-1.062-.186-.378-.209-.602-.463-.672-.761-.1-.425-.069-.986.095-1.683.173-.744.452-1.4.827-1.99l-.015.026c.379-.606.788-.96 1.225-1.065zm.93 1.754c-.156-.659-.364-.957-.626-.895-.275.065-.55.34-.823.823a5.777 5.777 0 0 0-.61 1.508l-.009.041c-.137.556-.171.979-.103 1.27a.373.373 0 0 0 .217.261l.002.001a.6.6 0 0 0 .374.023c.332-.079.654-.39.965-.935a3.83 3.83 0 0 0 .48-1.852c-.004-.111.041-.189.135-.234l-.002-.01z"/><path fill="#bbf330" style="fill:var(--color4,#bbf330)" d="M30.761 19.977a.913.913 0 0 0-.641.602c-1.906 5.65-7.245 9.72-13.536 9.72a14.222 14.222 0 0 1-9.841-3.934.91.91 0 0 0-.852-.231l.006-.001c-.639.158-.88.935-.406 1.392a15.868 15.868 0 0 0 11.073 4.481h.021-.001c7.078 0 13.082-4.606 15.183-10.987.206-.626-.368-1.199-1.006-1.041zM1.867 14.153a.907.907 0 0 0 .664-.719l.001-.005C3.743 6.764 9.572 1.708 16.584 1.708c4.559 0 8.618 2.137 11.233 5.465a.903.903 0 0 0 .923.328c.583-.145.847-.825.478-1.301C26.294 2.43 21.722.002 16.583.002 8.702.002 2.152 5.713.84 13.228c-.103.593.445 1.07 1.028.926zm38.752-8.819c-3.778 7.241-5.436 2.465-10.754 5.271.532-8.406 6.164-3.291 10.754-5.271z"/></symbol><symbol id="icon-btn-close" viewBox="0 0 30 32"><path d="m16.225 14.829 4.929-4.924a1.013 1.013 0 0 0-1.431-1.428l.001-.001-4.928 4.875-4.96-4.956a1.014 1.014 0 0 0-1.428 1.429l-.001-.002 4.949 5.007-4.848 4.783a1.013 1.013 0 1 0 1.429 1.431l.001-.001 4.837-4.833 4.807 4.802a1.014 1.014 0 0 0 1.428-1.429l.001.002-4.786-4.752z"/></symbol><symbol id="icon-left" viewBox="0 0 37 32"><path d="M2.67 24.001V7.999a5.334 5.334 0 0 1 5.334-5.334h21.335a5.334 5.334 0 0 1 5.334 5.334v16.002a5.334 5.334 0 0 1-5.334 5.334H8.004a5.334 5.334 0 0 1-5.334-5.334z" style="fill:var(--color1,#fefefe)"/><path d="m11.638 16.603 9.29 8.851a.832.832 0 0 0 1.15 0l.01-.01a.764.764 0 0 0 0-1.111l-8.748-8.334 8.748-8.331a.765.765 0 0 0 .001-1.112l-.01-.01a.828.828 0 0 0-1.15.001l-9.29 8.851a.832.832 0 0 0 0 1.206z"/></symbol><symbol id="icon-right" viewBox="0 0 37 32"><path fill="#fefefe" d="M34.673 7.999v16.002a5.334 5.334 0 0 1-5.334 5.334H8.004a5.334 5.334 0 0 1-5.334-5.334V7.999a5.334 5.334 0 0 1 5.334-5.334h21.335a5.334 5.334 0 0 1 5.334 5.334z" style="fill:var(--color1,#fefefe)"/><path d="m25.706 15.397-9.29-8.851a.828.828 0 0 0-1.15.001l-.01.01a.764.764 0 0 0 0 1.111l8.748 8.334-8.748 8.331a.764.764 0 0 0 0 1.111l.01.01a.832.832 0 0 0 1.15 0l9.29-8.851a.832.832 0 0 0 0-1.206z"/></symbol><symbol id="icon-deliv" viewBox="0 0 32 32"><path fill="#fff" style="fill:var(--color1,#fff)" d="M32.002 16.001c0 8.837-7.164 16.001-16.001 16.001S0 24.838 0 16.001C0 7.164 7.164 0 16.001 0s16.001 7.164 16.001 16.001z"/><path fill="#7eb101" style="fill:var(--color2,#7eb101)" d="m9.489 14.423 2.356 1c.267-.533.551-1.059.855-1.577s.626-1.015.967-1.489l-1.755-.355-2.423 2.422zm3.423 1.8 2.956 2.956a17.292 17.292 0 0 0 2.442-1.352l-.064.04c.74-.489 1.34-.963 1.8-1.422 1.2-1.2 2.081-2.43 2.644-3.69s.867-2.681.911-4.267c-1.585.045-3.008.349-4.267.911s-2.489 1.445-3.689 2.645c-.46.459-.933 1.059-1.423 1.8a17.031 17.031 0 0 0-1.266 2.269l-.045.108zm5.089-2.134c-.296-.296-.445-.663-.445-1.1s.149-.803.445-1.1c.296-.296.663-.444 1.1-.444s.804.148 1.1.444c.296.297.445.663.445 1.1s-.149.804-.445 1.1c-.296.297-.663.445-1.1.445s-.804-.148-1.1-.445zm-.333 8.512 2.422-2.422-.355-1.756c-.474.341-.971.663-1.489.967s-1.045.589-1.578.856l1 2.355zm7.245-15.423c.133 2.015-.119 3.852-.756 5.511s-1.689 3.223-3.156 4.69l-.045.044-.044.045.489 2.445c.045.222.033.437-.033.644s-.181.393-.345.556l-3.8 3.822-1.889-4.4-3.778-3.778-4.4-1.889 3.823-3.8c.163-.163.348-.278.555-.345s.422-.077.645-.033l2.444.489a.181.181 0 0 1 .044-.033h.001a.187.187 0 0 0 .045-.033c1.467-1.467 3.029-2.523 4.689-3.167s3.496-.9 5.512-.767zM8.645 19.446c.518-.519 1.151-.782 1.9-.789s1.381.249 1.9.767c.518.519.773 1.152.767 1.9s-.271 1.382-.789 1.9c-.385.385-.981.704-1.789.956s-2.019.489-3.634.711c.222-1.615.455-2.829.7-3.644s.559-1.415.945-1.8zm.934.955c-.207.222-.393.571-.556 1.045s-.303 1.081-.422 1.822c.741-.119 1.348-.259 1.822-.422s.823-.349 1.045-.556c.281-.251.426-.567.433-.944l.001-.041c0-.37-.149-.705-.389-.949a1.345 1.345 0 0 0-.949-.389l-.042.001h.002a1.248 1.248 0 0 0-.943.432l-.001.002z"/></symbol><symbol id="icon-order" viewBox="0 0 32 32"><path fill="#fff" style="fill:var(--color1,#fff)" d="M32.002 16.001c0 8.837-7.164 16.001-16.001 16.001S0 24.838 0 16.001C0 7.164 7.164 0 16.001 0s16.001 7.164 16.001 16.001z"/><path fill="#7eb101" style="fill:var(--color2,#7eb101)" d="M15.668 6.222c1.349 0 2.5.471 3.456 1.411s1.433 2.085 1.433 3.434a4.9 4.9 0 0 1-.5 2.178 4.951 4.951 0 0 1-1.4 1.725l-.011.008h-.755v-1.111c.418-.33.752-.747.98-1.224l.009-.021c.218-.451.345-.981.345-1.54v-.016.001c0-.978-.349-1.807-1.045-2.489s-1.533-1.023-2.511-1.023c-.977 0-1.815.341-2.511 1.023s-1.045 1.511-1.045 2.489c0 .548.115 1.067.345 1.555.236.498.571.915.982 1.239l.007.005v1.6a4.875 4.875 0 0 1-1.943-1.801l-.012-.021a4.841 4.841 0 0 1-.711-2.542v-.039.002c0-1.348.478-2.493 1.433-3.434S14.321 6.22 15.67 6.22zm-.844 18.668c-.252 0-.489-.048-.711-.144a1.86 1.86 0 0 1-.578-.389l-4.578-4.578 1.244-1.289c.207-.207.441-.367.7-.477a1.191 1.191 0 0 1 .82-.054l-.009-.002 1.733.4v-7.244c0-.623.215-1.149.645-1.578s.955-.645 1.577-.645c.623 0 1.149.215 1.578.645s.645.955.645 1.578v3.822h.577c.074 0 .141.015.2.045s.127.059.2.089l3.29 1.6c.355.163.618.426.789.789s.219.737.145 1.123l-.8 4.844c-.071.431-.298.8-.619 1.053l-.004.003a1.783 1.783 0 0 1-1.143.411h-5.701zm-.178-1.333h6.245l.955-5.534-4.067-2.022h-1.222v-4.889c0-.267-.082-.482-.245-.645s-.378-.245-.645-.245-.481.082-.644.245c-.163.163-.245.378-.245.645v8.867l-3.422-.733-.511.511 3.8 3.8zm6.245 0z"/></symbol><symbol id="icon-error" viewBox="0 0 32 32"><path fill="none" stroke="#ff705d" style="stroke:var(--color1,#ff705d)" stroke-linejoin="round" stroke-linecap="round" stroke-width="2.285" d="M16 11.429v6.856m0 8a1.144 1.144 0 1 0-.003-2.286H16a1.144 1.144 0 0 0-.003 2.286H16z"/><path fill="none" stroke="#ff705d" style="stroke:var(--color1,#ff705d)" stroke-linejoin="round" stroke-linecap="round" stroke-width="2.285" d="M18.035 2.4a2.284 2.284 0 0 0-4.06-.012l-.006.013L1.396 27.542a2.285 2.285 0 0 0 2.034 3.314h25.144a2.285 2.285 0 0 0 2.028-3.325l.006.013L18.035 2.397z"/></symbol><symbol id="icon-btn-open" viewBox="0 0 32 32"><path fill="#7eb101" style="fill:var(--color1,#7eb101)" d="M2.667 8.001c0-.737.597-1.334 1.334-1.334h24.002a1.334 1.334 0 1 1 0 2.668H4.001a1.334 1.334 0 0 1-1.334-1.334zm0 8.043a1.335 1.335 0 0 1 1.334-1.333h24.002l.039-.001a1.334 1.334 0 1 1 0 2.668l-.041-.001h.002H4.001a1.334 1.334 0 0 1-1.334-1.334zM4 22.754a1.334 1.334 0 0 0-.002 2.666h24.004l.039.001a1.334 1.334 0 1 0 0-2.668l-.041.001h.002H4z"/></symbol><symbol id="icon-logo" viewBox="0 0 41 32"><path fill="#ffe550" style="fill:var(--color2,#ffe550)" d="M14.144 6.458c1.011-1.982 3.836-1.982 4.847 0l1.28 2.51a2.729 2.729 0 0 0 1.98 1.45l.016.002 2.773.442c2.197.35 3.07 3.05 1.497 4.626l-1.978 1.983a2.725 2.725 0 0 0-.763 2.372l-.002-.016.437 2.773c.346 2.2-1.94 3.868-3.92 2.859L17.8 24.181c-.358-.186-.783-.296-1.232-.296s-.874.109-1.248.303l.015-.007-2.511 1.278c-1.98 1.009-4.267-.659-3.92-2.859l.437-2.773a2.725 2.725 0 0 0-.765-2.356l-1.979-1.983c-1.572-1.576-.699-4.276 1.497-4.626l2.773-.441a2.728 2.728 0 0 0 1.989-1.438l.007-.015 1.28-2.51z"/><path fill="#2c2c2c" style="fill:var(--color3,#2c2c2c)" d="m1.116 20.361-.021.005a76.868 76.868 0 0 0-.013 1.932c0 .157-.004.285-.01.384l.001.336c0 .105-.007.207-.021.308l.001-.012-.018.206c-.014.13-.042.201-.084.211-.092.022-.235-.049-.431-.212-.197-.17-.31-.319-.34-.447s-.038-1.06-.023-2.798c.021-1.74-.026-2.884-.14-3.433a.412.412 0 0 1 .014-.274l-.001.003c.036-.166.219-.321.55-.467.339-.147.843-.3 1.514-.459.678-.16 1.216-.25 1.614-.27.405-.021.623.032.652.16.021.085-.025.159-.137.223s-.211.117-.298.16c.121-.039.006.008-.109.054l-.239.085c-.145.049-.279.096-.403.14-.126.037-.288.09-.488.16-.193.068-.372.133-.536.194-.166.054-.39.133-.671.237s-.463.17-.546.197c.012.02.023.05.033.093.079.332.122 1.131.129 2.392a10.72 10.72 0 0 0 1.402-.366c.498-.162.804-.257.917-.284.269-.063.416-.039.443.074.052.22-.212.476-.791.771a8.607 8.607 0 0 1-1.95.697zm6.917-1.951a2.018 2.018 0 0 0-.282-.66l.005.008c-.13-.201-.281-.334-.452-.398-.455.25-.787.729-.992 1.435-.201.698-.236 1.32-.108 1.865s.343.854.644.924c.485-.219.834-.668 1.046-1.347.218-.687.265-1.297.139-1.828zm-2.764.755c.117-.611.33-1.14.643-1.588.318-.457.684-.734 1.102-.833.423-.1.819-.003 1.187.291.366.287.611.689.732 1.206.121.51.121 1.063.001 1.66a3.783 3.783 0 0 1-.72 1.58l.006-.009c-.349.449-.767.731-1.254.846-.361.086-.7-.01-1.019-.286s-.538-.669-.659-1.179c-.123-.517-.129-1.08-.019-1.689zm7.565-1.892a2.018 2.018 0 0 0-.282-.66l.005.008c-.129-.201-.281-.334-.452-.398-.455.25-.786.728-.992 1.435-.201.699-.236 1.32-.107 1.865.129.546.343.854.643.925.486-.22.835-.668 1.047-1.347.218-.687.265-1.296.138-1.828zm-2.764.755c.117-.611.331-1.14.643-1.588.318-.457.684-.734 1.102-.833.423-.1.82-.004 1.188.291.366.287.61.689.732 1.206.121.51.121 1.063.001 1.66a3.78 3.78 0 0 1-.72 1.579l.006-.009c-.349.449-.767.731-1.254.847-.361.085-.7-.01-1.019-.286s-.539-.669-.659-1.179c-.122-.517-.129-1.08-.019-1.689zm7.771-6.987c.113-.027.276.047.489.221.218.165.349.34.392.524s.079.729.107 1.635c.026.899.031 1.836.015 2.812-.02 2.188-.111 3.301-.273 3.34-.098.023-.223-.011-.371-.103-.143-.101-.226-.197-.247-.289s-.041-.282-.057-.57c-.524.872-1.045 1.369-1.561 1.491-.311.074-.627-.001-.948-.225-.314-.225-.508-.489-.579-.794-.105-.439-.111-.987-.02-1.644a5.612 5.612 0 0 1 .651-1.929l-.015.028c.327-.601.742-.961 1.243-1.079.502-.119.923.099 1.263.654.006-1.587-.077-2.819-.247-3.699-.05-.212.002-.337.158-.374zm.068 5.491c-.091-.382-.234-.689-.431-.919-.188-.232-.375-.326-.559-.283-.303.072-.57.333-.799.783a4.56 4.56 0 0 0-.454 1.453l-.003.024c-.07.525-.063.964.021 1.318a.398.398 0 0 0 .208.275l.002.001a.493.493 0 0 0 .359.038l-.004.001c.276-.065.599-.351.972-.858a3.581 3.581 0 0 0 .696-1.646l.002-.135-.012-.052zm6.764-.637c.137.581-.009 1.131-.438 1.652a3.028 3.028 0 0 1-1.663 1.011c-.671.159-1.267.117-1.787-.127-.522-.25-.819-.532-.892-.843-.051-.212-.012-.334.115-.364.113-.027.375.09.788.352.156.09.352.163.589.219.244.055.486.054.726-.004a2.377 2.377 0 0 0 1.224-.693c.329-.347.457-.669.387-.966-.045-.191-.23-.406-.555-.643a7.357 7.357 0 0 0-1.004-.619l-.042-.02a8.232 8.232 0 0 1-1.061-.677l.021.015c-.326-.244-.511-.455-.553-.632a1.669 1.669 0 0 1-.027-.596l-.001.009c.024-.215.068-.379.13-.491.203-.37.564-.751 1.083-1.143.526-.394.987-.638 1.383-.731a.738.738 0 0 1 .57.081l-.003-.002c.174.101.278.226.313.374.017.071-.044.145-.182.223s-.351.188-.638.331a5.216 5.216 0 0 0-.757.433l.017-.011c-.739.505-1.074.901-1.005 1.191.037.156.553.494 1.548 1.013.414.221.77.474 1.091.767L24.046 15c.346.3.555.598.625.895zm2.433.534c.032.135.126.183.281.147.268-.064.575-.215.922-.454.351-.247.548-.377.591-.386.127-.03.207.022.239.156.048.206-.108.493-.468.862-.353.368-.703.593-1.049.675-.339.08-.644.055-.913-.075-.271-.138-.43-.306-.477-.505a2.988 2.988 0 0 1-.051-.783c.011-.332.035-.767.071-1.307.042-.548.07-1 .082-1.354-.314.156-.527.248-.64.274s-.239-.003-.379-.09c-.134-.095-.214-.196-.239-.302-.04-.17.381-.442 1.262-.815a7.711 7.711 0 0 0-.178-1.606c-.05-.212-.005-.335.137-.369.12-.028.287.015.5.129.212.106.34.255.385.447s.065.542.058 1.052c.394-.131.711-.225.951-.281.425-.101.658-.058.702.126.025.106-.071.222-.287.348-.209.124-.663.348-1.363.67-.016.595-.052 1.28-.107 2.056-.057.769-.067 1.231-.03 1.387zm4.735-5.562c.318-.075.649.018.995.281.343.255.547.513.608.775.06.255.034.538-.079.849.11.086.174.167.193.246.047.198.081.549.103 1.052.03.502.051.829.065.983.021.152.036.276.043.371.006.089.009.177.007.268.014.183-.029.287-.128.311-.127.03-.258-.055-.396-.254a3.191 3.191 0 0 1-.343-.838c-.44.949-.928 1.487-1.465 1.614-.325.077-.679.015-1.062-.186-.378-.209-.602-.463-.672-.761-.1-.425-.069-.986.095-1.683.173-.744.452-1.4.827-1.99l-.015.026c.379-.606.788-.96 1.225-1.065zm.93 1.754c-.156-.659-.364-.957-.626-.895-.275.065-.55.34-.823.823a5.777 5.777 0 0 0-.61 1.508l-.009.041c-.137.556-.171.979-.103 1.27a.373.373 0 0 0 .217.261l.002.001a.6.6 0 0 0 .374.023c.332-.079.654-.39.965-.935a3.83 3.83 0 0 0 .48-1.852c-.004-.111.041-.189.135-.234l-.002-.01z"/><path fill="#bbf330" style="fill:var(--color4,#bbf330)" d="M30.761 19.977a.913.913 0 0 0-.641.602c-1.906 5.65-7.245 9.72-13.536 9.72a14.222 14.222 0 0 1-9.841-3.934.91.91 0 0 0-.852-.231l.006-.001c-.639.158-.88.935-.406 1.392a15.868 15.868 0 0 0 11.073 4.481h.021-.001c7.078 0 13.082-4.606 15.183-10.987.206-.626-.368-1.199-1.006-1.041zM1.867 14.153a.907.907 0 0 0 .664-.719l.001-.005C3.743 6.764 9.572 1.708 16.584 1.708c4.559 0 8.618 2.137 11.233 5.465a.903.903 0 0 0 .923.328c.583-.145.847-.825.478-1.301C26.294 2.43 21.722.002 16.583.002 8.702.002 2.152 5.713.84 13.228c-.103.593.445 1.07 1.028.926zm38.752-8.819c-3.778 7.241-5.436 2.465-10.754 5.271.532-8.406 6.164-3.291 10.754-5.271z"/></symbol><symbol id="icon-btn-close" viewBox="0 0 30 32"><path d="m16.225 14.829 4.929-4.924a1.013 1.013 0 0 0-1.431-1.428l.001-.001-4.928 4.875-4.96-4.956a1.014 1.014 0 0 0-1.428 1.429l-.001-.002 4.949 5.007-4.848 4.783a1.013 1.013 0 1 0 1.429 1.431l.001-.001 4.837-4.833 4.807 4.802a1.014 1.014 0 0 0 1.428-1.429l.001.002-4.786-4.752z"/></symbol><symbol id="icon-left" viewBox="0 0 37 32"><path d="M2.67 24.001V7.999a5.334 5.334 0 0 1 5.334-5.334h21.335a5.334 5.334 0 0 1 5.334 5.334v16.002a5.334 5.334 0 0 1-5.334 5.334H8.004a5.334 5.334 0 0 1-5.334-5.334z" style="fill:var(--color1,#fefefe)"/><path d="m11.638 16.603 9.29 8.851a.832.832 0 0 0 1.15 0l.01-.01a.764.764 0 0 0 0-1.111l-8.748-8.334 8.748-8.331a.765.765 0 0 0 .001-1.112l-.01-.01a.828.828 0 0 0-1.15.001l-9.29 8.851a.832.832 0 0 0 0 1.206z"/></symbol><symbol id="icon-right" viewBox="0 0 37 32"><path fill="#fefefe" d="M34.673 7.999v16.002a5.334 5.334 0 0 1-5.334 5.334H8.004a5.334 5.334 0 0 1-5.334-5.334V7.999a5.334 5.334 0 0 1 5.334-5.334h21.335a5.334 5.334 0 0 1 5.334 5.334z" style="fill:var(--color1,#fefefe)"/><path d="m25.706 15.397-9.29-8.851a.828.828 0 0 0-1.15.001l-.01.01a.764.764 0 0 0 0 1.111l8.748 8.334-8.748 8.331a.764.764 0 0 0 0 1.111l.01.01a.832.832 0 0 0 1.15 0l9.29-8.851a.832.832 0 0 0 0-1.206z"/></symbol><symbol id="icon-deliv" viewBox="0 0 32 32"><path fill="#fff" style="fill:var(--color1,#fff)" d="M32.002 16.001c0 8.837-7.164 16.001-16.001 16.001S0 24.838 0 16.001C0 7.164 7.164 0 16.001 0s16.001 7.164 16.001 16.001z"/><path fill="#7eb101" style="fill:var(--color2,#7eb101)" d="m9.489 14.423 2.356 1c.267-.533.551-1.059.855-1.577s.626-1.015.967-1.489l-1.755-.355-2.423 2.422zm3.423 1.8 2.956 2.956a17.292 17.292 0 0 0 2.442-1.352l-.064.04c.74-.489 1.34-.963 1.8-1.422 1.2-1.2 2.081-2.43 2.644-3.69s.867-2.681.911-4.267c-1.585.045-3.008.349-4.267.911s-2.489 1.445-3.689 2.645c-.46.459-.933 1.059-1.423 1.8a17.031 17.031 0 0 0-1.266 2.269l-.045.108zm5.089-2.134c-.296-.296-.445-.663-.445-1.1s.149-.803.445-1.1c.296-.296.663-.444 1.1-.444s.804.148 1.1.444c.296.297.445.663.445 1.1s-.149.804-.445 1.1c-.296.297-.663.445-1.1.445s-.804-.148-1.1-.445zm-.333 8.512 2.422-2.422-.355-1.756c-.474.341-.971.663-1.489.967s-1.045.589-1.578.856l1 2.355zm7.245-15.423c.133 2.015-.119 3.852-.756 5.511s-1.689 3.223-3.156 4.69l-.045.044-.044.045.489 2.445c.045.222.033.437-.033.644s-.181.393-.345.556l-3.8 3.822-1.889-4.4-3.778-3.778-4.4-1.889 3.823-3.8c.163-.163.348-.278.555-.345s.422-.077.645-.033l2.444.489a.181.181 0 0 1 .044-.033h.001a.187.187 0 0 0 .045-.033c1.467-1.467 3.029-2.523 4.689-3.167s3.496-.9 5.512-.767zM8.645 19.446c.518-.519 1.151-.782 1.9-.789s1.381.249 1.9.767c.518.519.773 1.152.767 1.9s-.271 1.382-.789 1.9c-.385.385-.981.704-1.789.956s-2.019.489-3.634.711c.222-1.615.455-2.829.7-3.644s.559-1.415.945-1.8zm.934.955c-.207.222-.393.571-.556 1.045s-.303 1.081-.422 1.822c.741-.119 1.348-.259 1.822-.422s.823-.349 1.045-.556c.281-.251.426-.567.433-.944l.001-.041c0-.37-.149-.705-.389-.949a1.345 1.345 0 0 0-.949-.389l-.042.001h.002a1.248 1.248 0 0 0-.943.432l-.001.002z"/></symbol><symbol id="icon-order" viewBox="0 0 32 32"><path fill="#fff" style="fill:var(--color1,#fff)" d="M32.002 16.001c0 8.837-7.164 16.001-16.001 16.001S0 24.838 0 16.001C0 7.164 7.164 0 16.001 0s16.001 7.164 16.001 16.001z"/><path fill="#7eb101" style="fill:var(--color2,#7eb101)" d="M15.668 6.222c1.349 0 2.5.471 3.456 1.411s1.433 2.085 1.433 3.434a4.9 4.9 0 0 1-.5 2.178 4.951 4.951 0 0 1-1.4 1.725l-.011.008h-.755v-1.111c.418-.33.752-.747.98-1.224l.009-.021c.218-.451.345-.981.345-1.54v-.016.001c0-.978-.349-1.807-1.045-2.489s-1.533-1.023-2.511-1.023c-.977 0-1.815.341-2.511 1.023s-1.045 1.511-1.045 2.489c0 .548.115 1.067.345 1.555.236.498.571.915.982 1.239l.007.005v1.6a4.875 4.875 0 0 1-1.943-1.801l-.012-.021a4.841 4.841 0 0 1-.711-2.542v-.039.002c0-1.348.478-2.493 1.433-3.434S14.321 6.22 15.67 6.22zm-.844 18.668c-.252 0-.489-.048-.711-.144a1.86 1.86 0 0 1-.578-.389l-4.578-4.578 1.244-1.289c.207-.207.441-.367.7-.477a1.191 1.191 0 0 1 .82-.054l-.009-.002 1.733.4v-7.244c0-.623.215-1.149.645-1.578s.955-.645 1.577-.645c.623 0 1.149.215 1.578.645s.645.955.645 1.578v3.822h.577c.074 0 .141.015.2.045s.127.059.2.089l3.29 1.6c.355.163.618.426.789.789s.219.737.145 1.123l-.8 4.844c-.071.431-.298.8-.619 1.053l-.004.003a1.783 1.783 0 0 1-1.143.411h-5.701zm-.178-1.333h6.245l.955-5.534-4.067-2.022h-1.222v-4.889c0-.267-.082-.482-.245-.645s-.378-.245-.645-.245-.481.082-.644.245c-.163.163-.245.378-.245.645v8.867l-3.422-.733-.511.511 3.8 3.8zm6.245 0z"/></symbol><symbol id="icon-error" viewBox="0 0 32 32"><path fill="none" stroke="#ff705d" style="stroke:var(--color1,#ff705d)" stroke-linejoin="round" stroke-linecap="round" stroke-width="2.286" d="M16 11.429v6.857M16.002 26.286a1.143 1.143 0 1 0 0-2.287 1.143 1.143 0 0 0 0 2.287z"/><path fill="none" stroke="#ff705d" style="stroke:var(--color1,#ff705d)" stroke-linejoin="round" stroke-linecap="round" stroke-width="2.286" d="M18.036 2.4a2.286 2.286 0 0 0-4.068 0L1.397 27.543a2.281 2.281 0 0 0 .094 2.224 2.287 2.287 0 0 0 1.941 1.09h25.143a2.28 2.28 0 0 0 1.941-1.09 2.292 2.292 0 0 0 .093-2.224L18.038 2.4z"/></symbol><symbol id="icon-next" viewBox="0 0 17 30" xmlns="http://www.w3.org/2000/svg"><path d="M16.55 14.095 2.617.82a1.25 1.25 0 0 0-1.725 0L.877.835a1.15 1.15 0 0 0 0 1.667l13.12 12.5L.877 27.497a1.15 1.15 0 0 0 0 1.668l.015.015a1.25 1.25 0 0 0 1.725 0L16.55 15.905a1.251 1.251 0 0 0 0-1.81Z"/></symbol><symbol id="icon-prev" viewBox="0 0 17 30" xmlns="http://www.w3.org/2000/svg"><path d="M.45 15.905 14.383 29.18a1.25 1.25 0 0 0 1.725 0l.015-.015a1.15 1.15 0 0 0 0-1.668l-13.12-12.5 13.12-12.494a1.15 1.15 0 0 0 0-1.668L16.108.82a1.25 1.25 0 0 0-1.725 0L.45 14.095a1.251 1.251 0 0 0 0 1.81Z"/></symbol><symbol id="icon-prev-small" viewBox="0 0 12 22" xmlns="http://www.w3.org/2000/svg"><path d="M.76 11.272a.376.376 0 0 1-.086-.124l-.46.197.46-.197a.375.375 0 0 1 0-.296l-.46-.197.46.197a.374.374 0 0 1 .086-.123l9.753-9.293a.375.375 0 0 1 .514-.003l.005.005.01.01a.307.307 0 0 1 .07.34.308.308 0 0 1-.07.101h-.001l-9.184 8.747-.38.362.38.362 9.184 8.75a.308.308 0 0 1 .07.342.308.308 0 0 1-.07.101l-.009.009-.005.005a.375.375 0 0 1-.514-.003L.76 11.272Z" stroke="#2C2C2C"/></symbol><symbol id="icon-next-small" viewBox="0 0 12 22" fill="none" xmlns="http://www.w3.org/2000/svg"><path d="M11.24 10.728a.375.375 0 0 1 .086.124l.46-.197-.46.197a.375.375 0 0 1 0 .296l.46.197-.46-.197a.374.374 0 0 1-.086.123l-9.753 9.293a.375.375 0 0 1-.514.003l-.005-.005-.01-.01a.303.303 0 0 1 0-.441H.96l9.184-8.747.38-.362-.38-.362L.96 1.89a.305.305 0 0 1 0-.443l.009-.009.005-.005a.375.375 0 0 1 .514.003l9.753 9.292Z" fill="#fff" stroke="#2C2C2C"/></symbol><symbol id="icon-vector" viewBox="0 0 19 32"><path d="M17.904 15.594c.228.229.369.544.369.893s-.141.664-.369.893L5.014 30.273c-.229.228-.544.369-.893.369s-.664-.141-.893-.369l-.598-.595c-.23-.229-.372-.546-.372-.896s.142-.667.372-.896l11.398-11.395L2.63 5.089a1.26 1.26 0 0 1 0-1.788l.595-.595c.229-.23.546-.372.896-.372s.667.142.896.372l12.886 12.89z"/></symbol><symbol id="icon-touch" viewBox="0 0 34 34"><path fill="#7eb101" style="fill:var(--color1,#7eb101)" d="M15.5 1.333c2.023 0 3.75.706 5.184 2.117 1.433 1.411 2.15 3.128 2.15 5.15a7.34 7.34 0 0 1-.75 3.267 7.432 7.432 0 0 1-2.1 2.588l-.017.012h-1.133V12.8a5.181 5.181 0 0 0 1.47-1.836l.013-.031a5.346 5.346 0 0 0 .517-2.31v-.024.001c0-1.467-.523-2.711-1.567-3.733s-2.3-1.534-3.767-1.534c-1.466 0-2.722.511-3.766 1.534S10.167 7.133 10.167 8.6c0 .822.172 1.6.517 2.333a5.188 5.188 0 0 0 1.472 1.859l.011.008v2.4a7.308 7.308 0 0 1-2.915-2.701l-.018-.032a7.266 7.266 0 0 1-1.067-3.812v-.058.003c0-2.022.717-3.739 2.15-5.15s3.161-2.117 5.183-2.117zm-1.266 28a2.66 2.66 0 0 1-1.067-.216 2.764 2.764 0 0 1-.867-.584l-6.866-6.866L7.3 19.733c.311-.31.661-.55 1.05-.716a1.819 1.819 0 0 1 1.23-.081l-.013-.003 2.6.6V8.667c0-.934.322-1.723.967-2.367.644-.644 1.433-.967 2.366-.967.934 0 1.723.323 2.367.967s.967 1.433.967 2.367V14.4h.866c.111 0 .211.022.3.067s.19.088.3.133l4.934 2.4c.533.244.927.639 1.183 1.183.255.545.328 1.106.217 1.684l-1.2 7.266a2.518 2.518 0 0 1-.929 1.58l-.005.004a2.68 2.68 0 0 1-1.714.616h-8.552zm-.267-2h9.367l1.433-8.3-6.1-3.033h-1.833V8.667c0-.4-.123-.723-.367-.967s-.567-.367-.967-.367-.722.123-.966.367c-.245.244-.367.567-.367.967v13.3l-5.133-1.1-.767.766 5.7 5.7zm9.367 0z"/></symbol><symbol id="icon-launch" viewBox="0 0 34 34"><path fill="#7eb101" style="fill:var(--color1,#7eb101)" d="m7.233 13.633 3.534 1.5c.4-.8.827-1.588 1.283-2.366s.939-1.522 1.45-2.234L10.867 10l-3.634 3.633zm5.134 2.7 4.433 4.434a25.986 25.986 0 0 0 3.663-2.027l-.096.06c1.11-.733 2.01-1.444 2.7-2.133 1.8-1.8 3.122-3.645 3.966-5.534s1.3-4.022 1.367-6.4c-2.378.067-4.511.523-6.4 1.367s-3.733 2.167-5.533 3.967c-.69.689-1.4 1.589-2.134 2.7a25.405 25.405 0 0 0-1.899 3.404l-.067.162zm7.633-3.2c-.444-.444-.667-.994-.667-1.65 0-.655.223-1.205.667-1.65s.994-.666 1.65-.666 1.206.222 1.65.666c.444.445.667.995.667 1.65s-.223 1.206-.667 1.65c-.444.445-.994.667-1.65.667s-1.206-.222-1.65-.667zM19.5 25.9l3.633-3.633-.533-2.634c-.711.512-1.456.995-2.233 1.45A40.49 40.49 0 0 1 18 22.367l1.5 3.533zM30.367 2.767c.2 3.022-.178 5.777-1.134 8.266-.955 2.49-2.533 4.834-4.733 7.034l-.067.066-.066.067.733 3.667c.067.333.05.655-.05.966-.1.312-.272.59-.517.834l-5.7 5.733L16 22.8l-5.667-5.667-6.6-2.833 5.734-5.7c.244-.244.522-.417.833-.517s.633-.116.967-.05l3.666.734a.247.247 0 0 1 .066-.049L15 8.717a.26.26 0 0 0 .067-.05c2.2-2.2 4.544-3.784 7.033-4.75s5.244-1.35 8.267-1.15zm-24.4 18.4c.777-.778 1.727-1.173 2.85-1.184 1.122-.01 2.072.373 2.85 1.15.777.778 1.16 1.728 1.15 2.85-.011 1.123-.406 2.073-1.184 2.85-.577.578-1.472 1.056-2.683 1.434S5.922 29 3.5 29.333c.333-2.422.683-4.244 1.05-5.466s.839-2.123 1.417-2.7zm1.4 1.433c-.311.333-.59.856-.834 1.567S6.078 25.789 5.9 26.9c1.111-.178 2.022-.389 2.733-.633.711-.245 1.234-.523 1.567-.834.422-.377.639-.85.65-1.416l.001-.061a2.02 2.02 0 0 0-.584-1.423 2.021 2.021 0 0 0-1.423-.584l-.064.001h.003a1.87 1.87 0 0 0-1.414.648l-.002.002z"/></symbol><symbol id="icon-Stars" viewBox="0 0 202 32"><path fill="#ffe550" style="fill:var(--color1,#ffe550)" d="M15.421 1.037c.584-1.383 2.575-1.383 3.159 0l3.449 8.164a1.71 1.71 0 0 0 1.443 1.032l8.952.707c1.517.12 2.132 1.983.976 2.958l-6.821 5.752a1.67 1.67 0 0 0-.551 1.67l2.084 8.6c.353 1.457-1.257 2.609-2.556 1.828l-7.664-4.609a1.734 1.734 0 0 0-1.783 0l-7.664 4.609c-1.299.781-2.909-.371-2.556-1.828l2.084-8.6a1.67 1.67 0 0 0-.551-1.67L.601 13.898c-1.156-.975-.541-2.838.976-2.958l8.952-.707a1.71 1.71 0 0 0 1.443-1.032l3.449-8.164zM57.421 1.037c.584-1.383 2.575-1.383 3.159 0l3.449 8.164a1.71 1.71 0 0 0 1.443 1.032l8.952.707c1.517.12 2.132 1.983.976 2.958l-6.821 5.752a1.67 1.67 0 0 0-.551 1.67l2.084 8.6c.353 1.457-1.257 2.609-2.556 1.828l-7.664-4.609a1.734 1.734 0 0 0-1.783 0l-7.664 4.609c-1.299.781-2.909-.371-2.556-1.828l2.084-8.6a1.67 1.67 0 0 0-.551-1.67l-6.821-5.752c-1.156-.975-.541-2.838.976-2.958l8.952-.707a1.71 1.71 0 0 0 1.443-1.032l3.449-8.164zM99.421 1.037c.584-1.383 2.575-1.383 3.159 0l3.449 8.164a1.71 1.71 0 0 0 1.443 1.032l8.952.707c1.517.12 2.132 1.983.976 2.958l-6.821 5.752a1.67 1.67 0 0 0-.551 1.67l2.084 8.6c.353 1.457-1.257 2.609-2.556 1.828l-7.664-4.609a1.734 1.734 0 0 0-1.783 0l-7.664 4.609c-1.299.781-2.909-.371-2.556-1.828l2.084-8.6a1.67 1.67 0 0 0-.551-1.67l-6.821-5.752c-1.156-.975-.541-2.838.976-2.958l8.952-.707a1.71 1.71 0 0 0 1.443-1.032l3.449-8.164zM141.421 1.037c.584-1.383 2.575-1.383 3.159 0l3.449 8.164a1.71 1.71 0 0 0 1.443 1.032l8.952.707c1.517.12 2.132 1.983.976 2.958l-6.821 5.752a1.67 1.67 0 0 0-.551 1.67l2.084 8.6c.353 1.457-1.257 2.609-2.556 1.828l-7.664-4.609a1.734 1.734 0 0 0-1.783 0l-7.664 4.609c-1.299.781-2.909-.371-2.556-1.828l2.084-8.6a1.67 1.67 0 0 0-.551-1.67l-6.821-5.752c-1.156-.975-.541-2.838.976-2.958l8.952-.707a1.71 1.71 0 0 0 1.443-1.032l3.449-8.164zM183.421 1.037c.584-1.383 2.575-1.383 3.159 0l3.449 8.164a1.71 1.71 0 0 0 1.443 1.032l8.953.707c1.516.12 2.132 1.983.976 2.958l-6.821 5.752a1.67 1.67 0 0 0-.551 1.67l2.084 8.6c.353 1.457-1.257 2.609-2.556 1.828l-7.664-4.609a1.734 1.734 0 0 0-1.783 0l-7.664 4.609c-1.299.781-2.909-.371-2.556-1.828l2.084-8.6a1.67 1.67 0 0 0-.551-1.67l-6.821-5.752c-1.156-.975-.541-2.838.976-2.958l8.952-.707a1.71 1.71 0 0 0 1.443-1.032l3.449-8.164z"/></symbol></defs></svg>