<svg aria-hidden="true" style="position:absolute;width:0;height:0;overflow:hidden"
    xmlns="http://www.w3.org/2000/svg">
    <defs>

        <symbol id="icon-btn-open" viewBox="0 0 32 32">
            <path fill="#7eb101" style="fill:var(--color1, #7eb101)" d="M2.667 8.001c0-.737.597-1.334 1.334-1.334h24.002a1.334 1.334 0 1 1 0 2.668H4.001a1.334 1.334 0 0 1-1.334-1.334zm0 8.043a1.335 1.335 0 0 1 1.334-1.333h24.002l.039-.001a1.334 1.334 0 1 1 0 2.668l-.041-.001h.002H4.001a1.334 1.334 0 0 1-1.334-1.334zM4 22.754a1.334 1.334 0 0 0-.002 2.666H28.002l.039.001a1.334 1.334 0 1 0 0-2.668l-.041.001h.002H4z"/>
        </symbol>

        <symbol id="icon-logo" viewBox="0 0 41 32">
            <path fill="#ffe550" style="fill:var(--color2, #ffe550)" d="M14.144 6.458c1.011-1.982 3.836-1.982 4.847 0l1.28 2.51a2.729 2.729 0 0 0 1.98 1.45l.016.002 2.773.442c2.197.35 3.07 3.05 1.497 4.626l-1.978 1.983a2.725 2.725 0 0 0-.763 2.372l-.002-.016.437 2.773c.346 2.2-1.94 3.868-3.92 2.859L17.8 24.181c-.358-.186-.783-.296-1.232-.296s-.874.109-1.248.303l.015-.007-2.511 1.278c-1.98 1.009-4.267-.659-3.92-2.859l.437-2.773a2.725 2.725 0 0 0-.765-2.356l-1.979-1.983c-1.572-1.576-.699-4.276 1.497-4.626l2.773-.441a2.728 2.728 0 0 0 1.989-1.438l.007-.015 1.28-2.51z"/>
            <path fill="#2c2c2c" style="fill:var(--color3, #2c2c2c)" d="m1.116 20.361-.021.005a76.868 76.868 0 0 0-.013 1.932c0 .157-.004.285-.01.384l.001.336c0 .105-.007.207-.021.308l.001-.012-.018.206c-.014.13-.042.201-.084.211-.092.022-.235-.049-.431-.212-.197-.17-.31-.319-.34-.447s-.038-1.06-.023-2.798c.021-1.74-.026-2.884-.14-3.433a.412.412 0 0 1 .014-.274l-.001.003c.036-.166.219-.321.55-.467.339-.147.843-.3 1.514-.459.678-.16 1.216-.25 1.614-.27.405-.021.623.032.652.16.021.085-.025.159-.137.223s-.211.117-.298.16c.121-.039.006.008-.109.054l-.239.085c-.145.049-.279.096-.403.14-.126.037-.288.09-.488.16-.193.068-.372.133-.536.194-.166.054-.39.133-.671.237s-.463.17-.546.197c.012.02.023.05.033.093.079.332.122 1.131.129 2.392a10.72 10.72 0 0 0 1.402-.366c.498-.162.804-.257.917-.284.269-.063.416-.039.443.074.052.22-.212.476-.791.771a8.607 8.607 0 0 1-1.95.697zm6.917-1.951a2.018 2.018 0 0 0-.282-.66l.005.008c-.13-.201-.281-.334-.452-.398-.455.25-.787.729-.992 1.435-.201.698-.236 1.32-.108 1.865s.343.854.644.924c.485-.219.834-.668 1.046-1.347.218-.687.265-1.297.139-1.828zm-2.764.755c.117-.611.33-1.14.643-1.588.318-.457.684-.734 1.102-.833.423-.1.819-.003 1.187.291.366.287.611.689.732 1.206.121.51.121 1.063.001 1.66a3.783 3.783 0 0 1-.72 1.58l.006-.009c-.349.449-.767.731-1.254.846-.361.086-.7-.01-1.019-.286s-.538-.669-.659-1.179c-.123-.517-.129-1.08-.019-1.689zm7.565-1.892a2.018 2.018 0 0 0-.282-.66l.005.008c-.129-.201-.281-.334-.452-.398-.455.25-.786.728-.992 1.435-.201.699-.236 1.32-.107 1.865.129.546.343.854.643.925.486-.22.835-.668 1.047-1.347.218-.687.265-1.296.138-1.828zm-2.764.755c.117-.611.331-1.14.643-1.588.318-.457.684-.734 1.102-.833.423-.1.82-.004 1.188.291.366.287.61.689.732 1.206.121.51.121 1.063.001 1.66a3.78 3.78 0 0 1-.72 1.579l.006-.009c-.349.449-.767.731-1.254.847-.361.085-.7-.01-1.019-.286s-.539-.669-.659-1.179c-.122-.517-.129-1.08-.019-1.689zm7.771-6.987c.113-.027.276.047.489.221.218.165.349.34.392.524s.079.729.107 1.635c.026.899.031 1.836.015 2.812-.02 2.188-.111 3.301-.273 3.34-.098.023-.223-.011-.371-.103-.143-.101-.226-.197-.247-.289s-.041-.282-.057-.57c-.524.872-1.045 1.369-1.561 1.491-.311.074-.627-.001-.948-.225-.314-.225-.508-.489-.579-.794-.105-.439-.111-.987-.02-1.644a5.612 5.612 0 0 1 .651-1.929l-.015.028c.327-.601.742-.961 1.243-1.079.502-.119.923.099 1.263.654.006-1.587-.077-2.819-.247-3.699-.05-.212.002-.337.158-.374zm.068 5.491c-.091-.382-.234-.689-.431-.919-.188-.232-.375-.326-.559-.283-.303.072-.57.333-.799.783a4.56 4.56 0 0 0-.454 1.453l-.003.024c-.07.525-.063.964.021 1.318a.398.398 0 0 0 .208.275l.002.001a.493.493 0 0 0 .359.038l-.004.001c.276-.065.599-.351.972-.858a3.581 3.581 0 0 0 .696-1.646l.002-.135-.012-.052zm6.764-.637c.137.581-.009 1.131-.438 1.652a3.028 3.028 0 0 1-1.663 1.011c-.671.159-1.267.117-1.787-.127-.522-.25-.819-.532-.892-.843-.051-.212-.012-.334.115-.364.113-.027.375.09.788.352.156.09.352.163.589.219.244.055.486.054.726-.004a2.377 2.377 0 0 0 1.224-.693c.329-.347.457-.669.387-.966-.045-.191-.23-.406-.555-.643a7.357 7.357 0 0 0-1.004-.619l-.042-.02a8.232 8.232 0 0 1-1.061-.677l.021.015c-.326-.244-.511-.455-.553-.632a1.669 1.669 0 0 1-.027-.596l-.001.009c.024-.215.068-.379.13-.491.203-.37.564-.751 1.083-1.143.526-.394.987-.638 1.383-.731a.738.738 0 0 1 .57.081l-.003-.002c.174.101.278.226.313.374.017.071-.044.145-.182.223s-.351.188-.638.331a5.216 5.216 0 0 0-.757.433l.017-.011c-.739.505-1.074.901-1.005 1.191.037.156.553.494 1.548 1.013.414.221.77.474 1.091.767L24.046 15c.346.3.555.598.625.895zm2.433.534c.032.135.126.183.281.147.268-.064.575-.215.922-.454.351-.247.548-.377.591-.386.127-.03.207.022.239.156.048.206-.108.493-.468.862-.353.368-.703.593-1.049.675-.339.08-.644.055-.913-.075-.271-.138-.43-.306-.477-.505a2.988 2.988 0 0 1-.051-.783c.011-.332.035-.767.071-1.307.042-.548.07-1 .082-1.354-.314.156-.527.248-.64.274s-.239-.003-.379-.09c-.134-.095-.214-.196-.239-.302-.04-.17.381-.442 1.262-.815a7.711 7.711 0 0 0-.178-1.606c-.05-.212-.005-.335.137-.369.12-.028.287.015.5.129.212.106.34.255.385.447s.065.542.058 1.052c.394-.131.711-.225.951-.281.425-.101.658-.058.702.126.025.106-.071.222-.287.348-.209.124-.663.348-1.363.67-.016.595-.052 1.28-.107 2.056-.057.769-.067 1.231-.03 1.387zm4.735-5.562c.318-.075.649.018.995.281.343.255.547.513.608.775.06.255.034.538-.079.849.11.086.174.167.193.246.047.198.081.549.103 1.052.03.502.051.829.065.983.021.152.036.276.043.371.006.089.009.177.007.268.014.183-.029.287-.128.311-.127.03-.258-.055-.396-.254a3.191 3.191 0 0 1-.343-.838c-.44.949-.928 1.487-1.465 1.614-.325.077-.679.015-1.062-.186-.378-.209-.602-.463-.672-.761-.1-.425-.069-.986.095-1.683.173-.744.452-1.4.827-1.99l-.015.026c.379-.606.788-.96 1.225-1.065zm.93 1.754c-.156-.659-.364-.957-.626-.895-.275.065-.55.34-.823.823a5.777 5.777 0 0 0-.61 1.508l-.009.041c-.137.556-.171.979-.103 1.27a.373.373 0 0 0 .217.261l.002.001a.6.6 0 0 0 .374.023c.332-.079.654-.39.965-.935a3.83 3.83 0 0 0 .48-1.852c-.004-.111.041-.189.135-.234l-.002-.01z"/>
            <path fill="#bbf330" style="fill:var(--color4, #bbf330)" d="M30.761 19.977a.913.913 0 0 0-.641.602c-1.906 5.65-7.245 9.72-13.536 9.72a14.222 14.222 0 0 1-9.841-3.934.91.91 0 0 0-.852-.231l.006-.001c-.639.158-.88.935-.406 1.392a15.868 15.868 0 0 0 11.073 4.481h.021-.001c7.078 0 13.082-4.606 15.183-10.987.206-.626-.368-1.199-1.006-1.041zM1.867 14.153a.907.907 0 0 0 .664-.719l.001-.005C3.743 6.764 9.572 1.708 16.584 1.708c4.559 0 8.618 2.137 11.233 5.465a.903.903 0 0 0 .923.328c.583-.145.847-.825.478-1.301C26.294 2.43 21.722.002 16.583.002 8.702.002 2.152 5.713.84 13.228c-.103.593.445 1.07 1.028.926zm38.752-8.819c-3.778 7.241-5.436 2.465-10.754 5.271.532-8.406 6.164-3.291 10.754-5.271z"/>
        </symbol>

        <symbol id="icon-btn-close" viewBox="0 0 30 32">
            <path d="m16.225 14.829 4.929-4.924a1.013 1.013 0 0 0-1.431-1.428l.001-.001-4.928 4.875-4.96-4.956a1.014 1.014 0 0 0-1.428 1.429l-.001-.002 4.949 5.007-4.848 4.783a1.013 1.013 0 1 0 1.429 1.431l.001-.001 4.837-4.833 4.807 4.802a1.014 1.014 0 0 0 1.428-1.429l.001.002-4.786-4.752z"/>
        </symbol>

        <symbol id="icon-left" viewBox="0 0 37 32">
            <path d="M2.67 24.001V7.999a5.334 5.334 0 0 1 5.334-5.334h21.335a5.334 5.334 0 0 1 5.334 5.334v16.002a5.334 5.334 0 0 1-5.334 5.334H8.004a5.334 5.334 0 0 1-5.334-5.334z" style="fill:var(--color1, #fefefe)"/>
            <path d="m11.638 16.603 9.29 8.851a.832.832 0 0 0 1.15 0l.01-.01a.764.764 0 0 0 0-1.111l-8.748-8.334 8.748-8.331a.765.765 0 0 0 .001-1.112l-.01-.01a.828.828 0 0 0-1.15.001l-9.29 8.851a.832.832 0 0 0 0 1.206z" />
        </symbol>

        <symbol id="icon-right" viewBox="0 0 37 32">
            <path fill="#fefefe" d="M34.673 7.999v16.002a5.334 5.334 0 0 1-5.334 5.334H8.004a5.334 5.334 0 0 1-5.334-5.334V7.999a5.334 5.334 0 0 1 5.334-5.334h21.335a5.334 5.334 0 0 1 5.334 5.334z" style="fill:var(--color1, #fefefe)"/>
            <path d="m25.706 15.397-9.29-8.851a.828.828 0 0 0-1.15.001l-.01.01a.764.764 0 0 0 0 1.111l8.748 8.334-8.748 8.331a.764.764 0 0 0 0 1.111l.01.01a.832.832 0 0 0 1.15 0l9.29-8.851a.832.832 0 0 0 0-1.206z" />
        </symbol>

        <symbol id="icon-deliv" viewBox="0 0 32 32">
            <path fill="#fff" style="fill: var(--color1, #fff)" d="M32.002 16.001c0 8.837-7.164 16.001-16.001 16.001s-16.001-7.164-16.001-16.001c0-8.837 7.164-16.001 16.001-16.001s16.001 7.164 16.001 16.001z"></path>
            <path fill="#7eb101" style="fill: var(--color2, #7eb101)" d="M9.489 14.423l2.356 1c0.267-0.533 0.551-1.059 0.855-1.577s0.626-1.015 0.967-1.489l-1.755-0.355-2.423 2.422zM12.912 16.223l2.956 2.956c0.922-0.422 1.702-0.859 2.442-1.352l-0.064 0.040c0.74-0.489 1.34-0.963 1.8-1.422 1.2-1.2 2.081-2.43 2.644-3.69s0.867-2.681 0.911-4.267c-1.585 0.045-3.008 0.349-4.267 0.911s-2.489 1.445-3.689 2.645c-0.46 0.459-0.933 1.059-1.423 1.8-0.452 0.676-0.889 1.456-1.266 2.269l-0.045 0.108zM18.001 14.089c-0.296-0.296-0.445-0.663-0.445-1.1s0.149-0.803 0.445-1.1c0.296-0.296 0.663-0.444 1.1-0.444s0.804 0.148 1.1 0.444c0.296 0.297 0.445 0.663 0.445 1.1s-0.149 0.804-0.445 1.1c-0.296 0.297-0.663 0.445-1.1 0.445s-0.804-0.148-1.1-0.445zM17.668 22.601l2.422-2.422-0.355-1.756c-0.474 0.341-0.971 0.663-1.489 0.967s-1.045 0.589-1.578 0.856l1 2.355zM24.913 7.178c0.133 2.015-0.119 3.852-0.756 5.511s-1.689 3.223-3.156 4.69l-0.045 0.044-0.044 0.045 0.489 2.445c0.045 0.222 0.033 0.437-0.033 0.644s-0.181 0.393-0.345 0.556l-3.8 3.822-1.889-4.4-3.778-3.778-4.4-1.889 3.823-3.8c0.163-0.163 0.348-0.278 0.555-0.345s0.422-0.077 0.645-0.033l2.444 0.489c0.013-0.013 0.027-0.024 0.044-0.033l0.001-0c0.017-0.009 0.032-0.020 0.045-0.033l0-0c1.467-1.467 3.029-2.523 4.689-3.167s3.496-0.9 5.512-0.767zM8.645 19.446c0.518-0.519 1.151-0.782 1.9-0.789s1.381 0.249 1.9 0.767c0.518 0.519 0.773 1.152 0.767 1.9s-0.271 1.382-0.789 1.9c-0.385 0.385-0.981 0.704-1.789 0.956s-2.019 0.489-3.634 0.711c0.222-1.615 0.455-2.829 0.7-3.644s0.559-1.415 0.945-1.8zM9.579 20.401c-0.207 0.222-0.393 0.571-0.556 1.045s-0.303 1.081-0.422 1.822c0.741-0.119 1.348-0.259 1.822-0.422s0.823-0.349 1.045-0.556c0.281-0.251 0.426-0.567 0.433-0.944 0-0.012 0.001-0.026 0.001-0.041 0-0.37-0.149-0.705-0.389-0.949l0 0c-0.244-0.241-0.579-0.389-0.949-0.389-0.014 0-0.028 0-0.042 0.001l0.002-0c-0.377 0.001-0.714 0.168-0.943 0.432l-0.001 0.002z"></path>
        </symbol>

        <symbol id="icon-order" viewBox="0 0 32 32">
            <path fill="#fff" style="fill: var(--color1, #fff)" d="M32.002 16.001c0 8.837-7.164 16.001-16.001 16.001s-16.001-7.164-16.001-16.001c0-8.837 7.164-16.001 16.001-16.001s16.001 7.164 16.001 16.001z"></path>
            <path fill="#7eb101" style="fill: var(--color2, #7eb101)" d="M15.668 6.222c1.349 0 2.5 0.471 3.456 1.411s1.433 2.085 1.433 3.434c0 0.77-0.167 1.496-0.5 2.178-0.343 0.694-0.82 1.273-1.4 1.725l-0.011 0.008h-0.755v-1.111c0.418-0.33 0.752-0.747 0.98-1.224l0.009-0.021c0.218-0.451 0.345-0.981 0.345-1.54 0-0.005 0-0.011-0-0.016v0.001c0-0.978-0.349-1.807-1.045-2.489s-1.533-1.023-2.511-1.023c-0.977 0-1.815 0.341-2.511 1.023s-1.045 1.511-1.045 2.489c0 0.548 0.115 1.067 0.345 1.555 0.236 0.498 0.571 0.915 0.982 1.239l0.007 0.005v1.6c-0.818-0.422-1.482-1.043-1.943-1.801l-0.012-0.021c-0.447-0.724-0.711-1.602-0.711-2.542 0-0.013 0-0.026 0-0.039v0.002c0-1.348 0.478-2.493 1.433-3.434s2.107-1.411 3.456-1.411zM14.824 24.89c-0.252 0-0.489-0.048-0.711-0.144-0.224-0.097-0.416-0.228-0.578-0.389l-4.578-4.578 1.244-1.289c0.207-0.207 0.441-0.367 0.7-0.477 0.143-0.064 0.309-0.101 0.485-0.101 0.116 0 0.229 0.016 0.335 0.047l-0.009-0.002 1.733 0.4v-7.244c0-0.623 0.215-1.149 0.645-1.578s0.955-0.645 1.577-0.645c0.623 0 1.149 0.215 1.578 0.645s0.645 0.955 0.645 1.578v3.822h0.577c0.074 0 0.141 0.015 0.2 0.045s0.127 0.059 0.2 0.089l3.29 1.6c0.355 0.163 0.618 0.426 0.789 0.789s0.219 0.737 0.145 1.123l-0.8 4.844c-0.071 0.431-0.298 0.8-0.619 1.053l-0.004 0.003c-0.308 0.256-0.707 0.411-1.143 0.411-0.004 0-0.009-0-0.013-0h-5.688zM14.646 23.557h6.245l0.955-5.534-4.067-2.022h-1.222v-4.889c0-0.267-0.082-0.482-0.245-0.645s-0.378-0.245-0.645-0.245-0.481 0.082-0.644 0.245c-0.163 0.163-0.245 0.378-0.245 0.645v8.867l-3.422-0.733-0.511 0.511 3.8 3.8zM20.891 23.557v0z"></path>
        </symbol>

        <symbol id="icon-error" viewBox="0 0 32 32">
            <path fill="none" stroke="#ff705d" style="stroke: var(--color1, #ff705d)" stroke-linejoin="round" stroke-linecap="round" stroke-miterlimit="4" stroke-width="2.2853" d="M16 11.429v6.856M16 26.285c0.017 0.001 0.036 0.001 0.055 0.001 0.632 0 1.144-0.512 1.144-1.144s-0.512-1.144-1.144-1.144c-0.019 0-0.039 0-0.058 0.001l0.003-0c-0.608 0.030-1.089 0.53-1.089 1.143s0.481 1.112 1.086 1.143l0.003 0z"></path>
            <path fill="none" stroke="#ff705d" style="stroke: var(--color1, #ff705d)" stroke-linejoin="round" stroke-linecap="round" stroke-miterlimit="4" stroke-width="2.2853" d="M18.035 2.4c-0.387-0.743-1.152-1.242-2.033-1.242s-1.646 0.499-2.027 1.23l-0.006 0.013-12.573 25.141c-0.154 0.3-0.245 0.654-0.245 1.029 0 1.26 1.020 2.282 2.279 2.285h25.144c1.259-0.004 2.278-1.026 2.278-2.285 0-0.374-0.090-0.728-0.25-1.040l0.006 0.013-12.573-25.147z"></path>
        </symbol>
        
        <symbol id="icon-btn-open" viewBox="0 0 32 32"><path fill="#7eb101" style="fill:var(--color1, #7eb101)" d="M2.667 8.001c0-.737.597-1.334 1.334-1.334h24.002a1.334 1.334 0 1 1 0 2.668H4.001a1.334 1.334 0 0 1-1.334-1.334zm0 8.043a1.335 1.335 0 0 1 1.334-1.333h24.002l.039-.001a1.334 1.334 0 1 1 0 2.668l-.041-.001h.002H4.001a1.334 1.334 0 0 1-1.334-1.334zM4 22.754a1.334 1.334 0 0 0-.002 2.666H28.002l.039.001a1.334 1.334 0 1 0 0-2.668l-.041.001h.002H4z"/></symbol>

        <symbol id="icon-logo" viewBox="0 0 41 32"><path fill="#ffe550" style="fill:var(--color2, #ffe550)" d="M14.144 6.458c1.011-1.982 3.836-1.982 4.847 0l1.28 2.51a2.729 2.729 0 0 0 1.98 1.45l.016.002 2.773.442c2.197.35 3.07 3.05 1.497 4.626l-1.978 1.983a2.725 2.725 0 0 0-.763 2.372l-.002-.016.437 2.773c.346 2.2-1.94 3.868-3.92 2.859L17.8 24.181c-.358-.186-.783-.296-1.232-.296s-.874.109-1.248.303l.015-.007-2.511 1.278c-1.98 1.009-4.267-.659-3.92-2.859l.437-2.773a2.725 2.725 0 0 0-.765-2.356l-1.979-1.983c-1.572-1.576-.699-4.276 1.497-4.626l2.773-.441a2.728 2.728 0 0 0 1.989-1.438l.007-.015 1.28-2.51z"/><path fill="#2c2c2c" style="fill:var(--color3, #2c2c2c)" d="m1.116 20.361-.021.005a76.868 76.868 0 0 0-.013 1.932c0 .157-.004.285-.01.384l.001.336c0 .105-.007.207-.021.308l.001-.012-.018.206c-.014.13-.042.201-.084.211-.092.022-.235-.049-.431-.212-.197-.17-.31-.319-.34-.447s-.038-1.06-.023-2.798c.021-1.74-.026-2.884-.14-3.433a.412.412 0 0 1 .014-.274l-.001.003c.036-.166.219-.321.55-.467.339-.147.843-.3 1.514-.459.678-.16 1.216-.25 1.614-.27.405-.021.623.032.652.16.021.085-.025.159-.137.223s-.211.117-.298.16c.121-.039.006.008-.109.054l-.239.085c-.145.049-.279.096-.403.14-.126.037-.288.09-.488.16-.193.068-.372.133-.536.194-.166.054-.39.133-.671.237s-.463.17-.546.197c.012.02.023.05.033.093.079.332.122 1.131.129 2.392a10.72 10.72 0 0 0 1.402-.366c.498-.162.804-.257.917-.284.269-.063.416-.039.443.074.052.22-.212.476-.791.771a8.607 8.607 0 0 1-1.95.697zm6.917-1.951a2.018 2.018 0 0 0-.282-.66l.005.008c-.13-.201-.281-.334-.452-.398-.455.25-.787.729-.992 1.435-.201.698-.236 1.32-.108 1.865s.343.854.644.924c.485-.219.834-.668 1.046-1.347.218-.687.265-1.297.139-1.828zm-2.764.755c.117-.611.33-1.14.643-1.588.318-.457.684-.734 1.102-.833.423-.1.819-.003 1.187.291.366.287.611.689.732 1.206.121.51.121 1.063.001 1.66a3.783 3.783 0 0 1-.72 1.58l.006-.009c-.349.449-.767.731-1.254.846-.361.086-.7-.01-1.019-.286s-.538-.669-.659-1.179c-.123-.517-.129-1.08-.019-1.689zm7.565-1.892a2.018 2.018 0 0 0-.282-.66l.005.008c-.129-.201-.281-.334-.452-.398-.455.25-.786.728-.992 1.435-.201.699-.236 1.32-.107 1.865.129.546.343.854.643.925.486-.22.835-.668 1.047-1.347.218-.687.265-1.296.138-1.828zm-2.764.755c.117-.611.331-1.14.643-1.588.318-.457.684-.734 1.102-.833.423-.1.82-.004 1.188.291.366.287.61.689.732 1.206.121.51.121 1.063.001 1.66a3.78 3.78 0 0 1-.72 1.579l.006-.009c-.349.449-.767.731-1.254.847-.361.085-.7-.01-1.019-.286s-.539-.669-.659-1.179c-.122-.517-.129-1.08-.019-1.689zm7.771-6.987c.113-.027.276.047.489.221.218.165.349.34.392.524s.079.729.107 1.635c.026.899.031 1.836.015 2.812-.02 2.188-.111 3.301-.273 3.34-.098.023-.223-.011-.371-.103-.143-.101-.226-.197-.247-.289s-.041-.282-.057-.57c-.524.872-1.045 1.369-1.561 1.491-.311.074-.627-.001-.948-.225-.314-.225-.508-.489-.579-.794-.105-.439-.111-.987-.02-1.644a5.612 5.612 0 0 1 .651-1.929l-.015.028c.327-.601.742-.961 1.243-1.079.502-.119.923.099 1.263.654.006-1.587-.077-2.819-.247-3.699-.05-.212.002-.337.158-.374zm.068 5.491c-.091-.382-.234-.689-.431-.919-.188-.232-.375-.326-.559-.283-.303.072-.57.333-.799.783a4.56 4.56 0 0 0-.454 1.453l-.003.024c-.07.525-.063.964.021 1.318a.398.398 0 0 0 .208.275l.002.001a.493.493 0 0 0 .359.038l-.004.001c.276-.065.599-.351.972-.858a3.581 3.581 0 0 0 .696-1.646l.002-.135-.012-.052zm6.764-.637c.137.581-.009 1.131-.438 1.652a3.028 3.028 0 0 1-1.663 1.011c-.671.159-1.267.117-1.787-.127-.522-.25-.819-.532-.892-.843-.051-.212-.012-.334.115-.364.113-.027.375.09.788.352.156.09.352.163.589.219.244.055.486.054.726-.004a2.377 2.377 0 0 0 1.224-.693c.329-.347.457-.669.387-.966-.045-.191-.23-.406-.555-.643a7.357 7.357 0 0 0-1.004-.619l-.042-.02a8.232 8.232 0 0 1-1.061-.677l.021.015c-.326-.244-.511-.455-.553-.632a1.669 1.669 0 0 1-.027-.596l-.001.009c.024-.215.068-.379.13-.491.203-.37.564-.751 1.083-1.143.526-.394.987-.638 1.383-.731a.738.738 0 0 1 .57.081l-.003-.002c.174.101.278.226.313.374.017.071-.044.145-.182.223s-.351.188-.638.331a5.216 5.216 0 0 0-.757.433l.017-.011c-.739.505-1.074.901-1.005 1.191.037.156.553.494 1.548 1.013.414.221.77.474 1.091.767L24.046 15c.346.3.555.598.625.895zm2.433.534c.032.135.126.183.281.147.268-.064.575-.215.922-.454.351-.247.548-.377.591-.386.127-.03.207.022.239.156.048.206-.108.493-.468.862-.353.368-.703.593-1.049.675-.339.08-.644.055-.913-.075-.271-.138-.43-.306-.477-.505a2.988 2.988 0 0 1-.051-.783c.011-.332.035-.767.071-1.307.042-.548.07-1 .082-1.354-.314.156-.527.248-.64.274s-.239-.003-.379-.09c-.134-.095-.214-.196-.239-.302-.04-.17.381-.442 1.262-.815a7.711 7.711 0 0 0-.178-1.606c-.05-.212-.005-.335.137-.369.12-.028.287.015.5.129.212.106.34.255.385.447s.065.542.058 1.052c.394-.131.711-.225.951-.281.425-.101.658-.058.702.126.025.106-.071.222-.287.348-.209.124-.663.348-1.363.67-.016.595-.052 1.28-.107 2.056-.057.769-.067 1.231-.03 1.387zm4.735-5.562c.318-.075.649.018.995.281.343.255.547.513.608.775.06.255.034.538-.079.849.11.086.174.167.193.246.047.198.081.549.103 1.052.03.502.051.829.065.983.021.152.036.276.043.371.006.089.009.177.007.268.014.183-.029.287-.128.311-.127.03-.258-.055-.396-.254a3.191 3.191 0 0 1-.343-.838c-.44.949-.928 1.487-1.465 1.614-.325.077-.679.015-1.062-.186-.378-.209-.602-.463-.672-.761-.1-.425-.069-.986.095-1.683.173-.744.452-1.4.827-1.99l-.015.026c.379-.606.788-.96 1.225-1.065zm.93 1.754c-.156-.659-.364-.957-.626-.895-.275.065-.55.34-.823.823a5.777 5.777 0 0 0-.61 1.508l-.009.041c-.137.556-.171.979-.103 1.27a.373.373 0 0 0 .217.261l.002.001a.6.6 0 0 0 .374.023c.332-.079.654-.39.965-.935a3.83 3.83 0 0 0 .48-1.852c-.004-.111.041-.189.135-.234l-.002-.01z"/><path fill="#bbf330" style="fill:var(--color4, #bbf330)" d="M30.761 19.977a.913.913 0 0 0-.641.602c-1.906 5.65-7.245 9.72-13.536 9.72a14.222 14.222 0 0 1-9.841-3.934.91.91 0 0 0-.852-.231l.006-.001c-.639.158-.88.935-.406 1.392a15.868 15.868 0 0 0 11.073 4.481h.021-.001c7.078 0 13.082-4.606 15.183-10.987.206-.626-.368-1.199-1.006-1.041zM1.867 14.153a.907.907 0 0 0 .664-.719l.001-.005C3.743 6.764 9.572 1.708 16.584 1.708c4.559 0 8.618 2.137 11.233 5.465a.903.903 0 0 0 .923.328c.583-.145.847-.825.478-1.301C26.294 2.43 21.722.002 16.583.002 8.702.002 2.152 5.713.84 13.228c-.103.593.445 1.07 1.028.926zm38.752-8.819c-3.778 7.241-5.436 2.465-10.754 5.271.532-8.406 6.164-3.291 10.754-5.271z"/></symbol>

        <symbol id="icon-btn-close" viewBox="0 0 30 32"><path d="m16.225 14.829 4.929-4.924a1.013 1.013 0 0 0-1.431-1.428l.001-.001-4.928 4.875-4.96-4.956a1.014 1.014 0 0 0-1.428 1.429l-.001-.002 4.949 5.007-4.848 4.783a1.013 1.013 0 1 0 1.429 1.431l.001-.001 4.837-4.833 4.807 4.802a1.014 1.014 0 0 0 1.428-1.429l.001.002-4.786-4.752z"/></symbol>

        <symbol id="icon-left" viewBox="0 0 37 32"><path  d="M2.67 24.001V7.999a5.334 5.334 0 0 1 5.334-5.334h21.335a5.334 5.334 0 0 1 5.334 5.334v16.002a5.334 5.334 0 0 1-5.334 5.334H8.004a5.334 5.334 0 0 1-5.334-5.334z" style="fill:var(--color1, #fefefe)"/><path d="m11.638 16.603 9.29 8.851a.832.832 0 0 0 1.15 0l.01-.01a.764.764 0 0 0 0-1.111l-8.748-8.334 8.748-8.331a.765.765 0 0 0 .001-1.112l-.01-.01a.828.828 0 0 0-1.15.001l-9.29 8.851a.832.832 0 0 0 0 1.206z" /></symbol>

        <symbol id="icon-right" viewBox="0 0 37 32"><path fill="#fefefe" d="M34.673 7.999v16.002a5.334 5.334 0 0 1-5.334 5.334H8.004a5.334 5.334 0 0 1-5.334-5.334V7.999a5.334 5.334 0 0 1 5.334-5.334h21.335a5.334 5.334 0 0 1 5.334 5.334z" style="fill:var(--color1, #fefefe)"/><path d="m25.706 15.397-9.29-8.851a.828.828 0 0 0-1.15.001l-.01.01a.764.764 0 0 0 0 1.111l8.748 8.334-8.748 8.331a.764.764 0 0 0 0 1.111l.01.01a.832.832 0 0 0 1.15 0l9.29-8.851a.832.832 0 0 0 0-1.206z" /></symbol>

        <symbol id="icon-deliv" viewBox="0 0 32 32">
        <path fill="#fff" style="fill: var(--color1, #fff)" d="M32.002 16.001c0 8.837-7.164 16.001-16.001 16.001s-16.001-7.164-16.001-16.001c0-8.837 7.164-16.001 16.001-16.001s16.001 7.164 16.001 16.001z"></path>
        <path fill="#7eb101" style="fill: var(--color2, #7eb101)" d="M9.489 14.423l2.356 1c0.267-0.533 0.551-1.059 0.855-1.577s0.626-1.015 0.967-1.489l-1.755-0.355-2.423 2.422zM12.912 16.223l2.956 2.956c0.922-0.422 1.702-0.859 2.442-1.352l-0.064 0.040c0.74-0.489 1.34-0.963 1.8-1.422 1.2-1.2 2.081-2.43 2.644-3.69s0.867-2.681 0.911-4.267c-1.585 0.045-3.008 0.349-4.267 0.911s-2.489 1.445-3.689 2.645c-0.46 0.459-0.933 1.059-1.423 1.8-0.452 0.676-0.889 1.456-1.266 2.269l-0.045 0.108zM18.001 14.089c-0.296-0.296-0.445-0.663-0.445-1.1s0.149-0.803 0.445-1.1c0.296-0.296 0.663-0.444 1.1-0.444s0.804 0.148 1.1 0.444c0.296 0.297 0.445 0.663 0.445 1.1s-0.149 0.804-0.445 1.1c-0.296 0.297-0.663 0.445-1.1 0.445s-0.804-0.148-1.1-0.445zM17.668 22.601l2.422-2.422-0.355-1.756c-0.474 0.341-0.971 0.663-1.489 0.967s-1.045 0.589-1.578 0.856l1 2.355zM24.913 7.178c0.133 2.015-0.119 3.852-0.756 5.511s-1.689 3.223-3.156 4.69l-0.045 0.044-0.044 0.045 0.489 2.445c0.045 0.222 0.033 0.437-0.033 0.644s-0.181 0.393-0.345 0.556l-3.8 3.822-1.889-4.4-3.778-3.778-4.4-1.889 3.823-3.8c0.163-0.163 0.348-0.278 0.555-0.345s0.422-0.077 0.645-0.033l2.444 0.489c0.013-0.013 0.027-0.024 0.044-0.033l0.001-0c0.017-0.009 0.032-0.020 0.045-0.033l0-0c1.467-1.467 3.029-2.523 4.689-3.167s3.496-0.9 5.512-0.767zM8.645 19.446c0.518-0.519 1.151-0.782 1.9-0.789s1.381 0.249 1.9 0.767c0.518 0.519 0.773 1.152 0.767 1.9s-0.271 1.382-0.789 1.9c-0.385 0.385-0.981 0.704-1.789 0.956s-2.019 0.489-3.634 0.711c0.222-1.615 0.455-2.829 0.7-3.644s0.559-1.415 0.945-1.8zM9.579 20.401c-0.207 0.222-0.393 0.571-0.556 1.045s-0.303 1.081-0.422 1.822c0.741-0.119 1.348-0.259 1.822-0.422s0.823-0.349 1.045-0.556c0.281-0.251 0.426-0.567 0.433-0.944 0-0.012 0.001-0.026 0.001-0.041 0-0.37-0.149-0.705-0.389-0.949l0 0c-0.244-0.241-0.579-0.389-0.949-0.389-0.014 0-0.028 0-0.042 0.001l0.002-0c-0.377 0.001-0.714 0.168-0.943 0.432l-0.001 0.002z"></path>
        </symbol>

        <symbol id="icon-order" viewBox="0 0 32 32">
        <path fill="#fff" style="fill: var(--color1, #fff)" d="M32.002 16.001c0 8.837-7.164 16.001-16.001 16.001s-16.001-7.164-16.001-16.001c0-8.837 7.164-16.001 16.001-16.001s16.001 7.164 16.001 16.001z"></path>
        <path fill="#7eb101" style="fill: var(--color2, #7eb101)" d="M15.668 6.222c1.349 0 2.5 0.471 3.456 1.411s1.433 2.085 1.433 3.434c0 0.77-0.167 1.496-0.5 2.178-0.343 0.694-0.82 1.273-1.4 1.725l-0.011 0.008h-0.755v-1.111c0.418-0.33 0.752-0.747 0.98-1.224l0.009-0.021c0.218-0.451 0.345-0.981 0.345-1.54 0-0.005 0-0.011-0-0.016v0.001c0-0.978-0.349-1.807-1.045-2.489s-1.533-1.023-2.511-1.023c-0.977 0-1.815 0.341-2.511 1.023s-1.045 1.511-1.045 2.489c0 0.548 0.115 1.067 0.345 1.555 0.236 0.498 0.571 0.915 0.982 1.239l0.007 0.005v1.6c-0.818-0.422-1.482-1.043-1.943-1.801l-0.012-0.021c-0.447-0.724-0.711-1.602-0.711-2.542 0-0.013 0-0.026 0-0.039v0.002c0-1.348 0.478-2.493 1.433-3.434s2.107-1.411 3.456-1.411zM14.824 24.89c-0.252 0-0.489-0.048-0.711-0.144-0.224-0.097-0.416-0.228-0.578-0.389l-4.578-4.578 1.244-1.289c0.207-0.207 0.441-0.367 0.7-0.477 0.143-0.064 0.309-0.101 0.485-0.101 0.116 0 0.229 0.016 0.335 0.047l-0.009-0.002 1.733 0.4v-7.244c0-0.623 0.215-1.149 0.645-1.578s0.955-0.645 1.577-0.645c0.623 0 1.149 0.215 1.578 0.645s0.645 0.955 0.645 1.578v3.822h0.577c0.074 0 0.141 0.015 0.2 0.045s0.127 0.059 0.2 0.089l3.29 1.6c0.355 0.163 0.618 0.426 0.789 0.789s0.219 0.737 0.145 1.123l-0.8 4.844c-0.071 0.431-0.298 0.8-0.619 1.053l-0.004 0.003c-0.308 0.256-0.707 0.411-1.143 0.411-0.004 0-0.009-0-0.013-0h-5.688zM14.646 23.557h6.245l0.955-5.534-4.067-2.022h-1.222v-4.889c0-0.267-0.082-0.482-0.245-0.645s-0.378-0.245-0.645-0.245-0.481 0.082-0.644 0.245c-0.163 0.163-0.245 0.378-0.245 0.645v8.867l-3.422-0.733-0.511 0.511 3.8 3.8zM20.891 23.557v0z"></path></symbol>

        <symbol id="icon-error" viewBox="0 0 32 32">
        <path fill="none" stroke="#ff705d" style="stroke: var(--color1, #ff705d)" stroke-linejoin="round" stroke-linecap="round" stroke-miterlimit="4" stroke-width="2.2857" d="M16 11.429v6.857"></path>
        <path fill="none" stroke="#ff705d" style="stroke: var(--color1, #ff705d)" stroke-linejoin="round" stroke-linecap="round" stroke-miterlimit="4" stroke-width="2.2857" d="M16.002 26.286c0.631 0 1.143-0.512 1.143-1.143s-0.512-1.143-1.143-1.143c-0.631 0-1.143 0.512-1.143 1.143s0.512 1.143 1.143 1.143z"></path>
        <path fill="none" stroke="#ff705d" style="stroke: var(--color1, #ff705d)" stroke-linejoin="round" stroke-linecap="round" stroke-miterlimit="4" stroke-width="2.2857" d="M18.036 2.4c-0.192-0.374-0.483-0.689-0.842-0.908s-0.771-0.336-1.192-0.336c-0.421 0-0.833 0.116-1.192 0.336s-0.65 0.534-0.842 0.908l-12.571 25.143c-0.175 0.348-0.259 0.735-0.242 1.124s0.132 0.768 0.336 1.1c0.204 0.332 0.489 0.606 0.829 0.797s0.723 0.291 1.112 0.293h25.143c0.39-0.001 0.772-0.102 1.112-0.293s0.625-0.465 0.829-0.797c0.204-0.332 0.319-0.711 0.336-1.1s-0.067-0.776-0.243-1.124l-12.571-25.143z"></path></symbol>

        <symbol id="icon-next" width="17" height="30" viewBox="0 0 17 30" xmlns="http://www.w3.org/2000/svg">
        <path d="M16.5497 14.095L2.61725 0.819969C2.38478 0.598357 2.07592 0.474731 1.75475 0.474731C1.43357 0.474731 1.12472 0.598357 0.89225 0.819969L0.877249 0.834969C0.764162 0.942402 0.674112 1.07172 0.612577 1.21505C0.551044 1.35838 0.519312 1.51274 0.519312 1.66872C0.519312 1.8247 0.551044 1.97905 0.612577 2.12239C0.674112 2.26572 0.764162 2.39504 0.877249 2.50247L13.9972 15.0025L0.877248 27.4975C0.764161 27.6049 0.674111 27.7342 0.612576 27.8776C0.551043 28.0209 0.519311 28.1752 0.519311 28.3312C0.519311 28.4872 0.551043 28.6416 0.612576 28.7849C0.674111 28.9282 0.764161 29.0575 0.877248 29.165L0.892249 29.18C1.12472 29.4016 1.43357 29.5252 1.75475 29.5252C2.07592 29.5252 2.38478 29.4016 2.61725 29.18L16.5497 15.905C16.6723 15.7882 16.7698 15.6478 16.8365 15.4923C16.9031 15.3367 16.9375 15.1692 16.9375 15C16.9375 14.8307 16.9031 14.6632 16.8365 14.5077C16.7698 14.3521 16.6723 14.2117 16.5497 14.095Z" />
        </symbol>

        <symbol id="icon-prev" width="17" height="30" viewBox="0 0 17 30" xmlns="http://www.w3.org/2000/svg">
        <path d="M0.450251 15.905L14.3828 29.18C14.6152 29.4016 14.9241 29.5253 15.2453 29.5253C15.5664 29.5253 15.8753 29.4016 16.1077 29.18L16.1228 29.165C16.2358 29.0576 16.3259 28.9283 16.3874 28.7849C16.449 28.6416 16.4807 28.4873 16.4807 28.3313C16.4807 28.1753 16.449 28.0209 16.3874 27.8776C16.3259 27.7343 16.2358 27.605 16.1228 27.4975L3.00275 14.9975L16.1228 2.50253C16.2358 2.3951 16.3259 2.26578 16.3874 2.12245C16.449 1.97911 16.4807 1.82476 16.4807 1.66878C16.4807 1.5128 16.449 1.35845 16.3874 1.21511C16.3259 1.07178 16.2358 0.942463 16.1228 0.83503L16.1078 0.82003C15.8753 0.598417 15.5664 0.474789 15.2453 0.474789C14.9241 0.474789 14.6152 0.598417 14.3828 0.82003L0.450251 14.095C0.32772 14.2118 0.230172 14.3522 0.163521 14.5077C0.0968686 14.6633 0.0625002 14.8308 0.0625002 15C0.0625002 15.1693 0.0968686 15.3368 0.163521 15.4923C0.230172 15.6479 0.32772 15.7883 0.450251 15.905Z"/>
        </symbol>

        <symbol id="icon-prev-small" width="12" height="22" viewBox="0 0 12 22" xmlns="http://www.w3.org/2000/svg">
        <path d="M0.759889 11.2716L0.759881 11.2716C0.723121 11.2365 0.693857 11.1944 0.673862 11.1477L0.214269 11.3447L0.673861 11.1477C0.653865 11.1011 0.643555 11.0508 0.643555 11.0001C0.643555 10.9493 0.653865 10.899 0.673861 10.8524L0.214269 10.6555L0.673862 10.8524C0.693857 10.8057 0.723122 10.7636 0.759881 10.7286L0.759889 10.7285L10.5126 1.43605L10.5127 1.43596C10.5825 1.36948 10.6751 1.33239 10.7715 1.33239C10.8663 1.33239 10.9575 1.36828 11.0268 1.43274L11.0322 1.43813L11.0321 1.43824L11.0414 1.44706C11.0713 1.47555 11.0952 1.50984 11.1116 1.54786C11.1279 1.58587 11.1363 1.62681 11.1363 1.66818C11.1363 1.70955 11.1279 1.75049 11.1116 1.7885C11.0952 1.82652 11.0713 1.86082 11.0414 1.88931L11.0409 1.88973L1.85691 10.6362L1.4768 10.9982L1.85683 11.3603L11.0408 20.1103L11.0414 20.1108C11.0713 20.1393 11.0952 20.1736 11.1116 20.2116C11.1279 20.2496 11.1363 20.2906 11.1363 20.3319C11.1363 20.3733 11.1279 20.4142 11.1116 20.4523C11.0952 20.4903 11.0713 20.5246 11.0414 20.5531L11.0412 20.5529L11.0322 20.562L11.0268 20.5674C10.9575 20.6318 10.8663 20.6677 10.7715 20.6677C10.6751 20.6677 10.5825 20.6306 10.5127 20.5642L10.5126 20.5641L0.759889 11.2716Z" stroke="#2C2C2C"/>
        </symbol>

        <symbol id="icon-next-small" width="12" height="22" viewBox="0 0 12 22" fill="none" xmlns="http://www.w3.org/2000/svg">
        <path d="M11.2401 10.7284L11.2401 10.7284C11.2769 10.7635 11.3061 10.8056 11.3261 10.8523L11.7857 10.6553L11.3261 10.8523C11.3461 10.8989 11.3564 10.9492 11.3564 10.9999C11.3564 11.0507 11.3461 11.101 11.3261 11.1476L11.7857 11.3445L11.3261 11.1476C11.3061 11.1943 11.2769 11.2364 11.2401 11.2714L11.2401 11.2715L1.48736 20.564L1.48727 20.564C1.41753 20.6305 1.32487 20.6676 1.22852 20.6676C1.13374 20.6676 1.04253 20.6317 0.973195 20.5673L0.967806 20.5619L0.967921 20.5618L0.958644 20.5529C0.928655 20.5245 0.90477 20.4902 0.888449 20.4521C0.872129 20.4141 0.863712 20.3732 0.863712 20.3318C0.863712 20.2904 0.872128 20.2495 0.888449 20.2115C0.90477 20.1735 0.928653 20.1392 0.958644 20.1107L0.959092 20.1103L10.1431 11.3638L10.5232 11.0018L10.1432 10.6397L0.959166 1.88969L0.958645 1.88919C0.928654 1.8607 0.90477 1.8264 0.88845 1.78839C0.872129 1.75037 0.863713 1.70944 0.863713 1.66807C0.863713 1.6267 0.872129 1.58576 0.888449 1.54775C0.90477 1.50973 0.928654 1.47543 0.958645 1.44694L0.958758 1.44706L0.967809 1.43801L0.973205 1.43261C1.04254 1.36816 1.13374 1.33227 1.22852 1.33227C1.32487 1.33227 1.41753 1.36936 1.48727 1.43585L1.48736 1.43593L11.2401 10.7284Z" fill="white" stroke="#2C2C2C"/>
        </symbol>

        <symbol id="icon-vector" viewBox="0 0 19 32">
        <path d="M17.904 15.594c0.228 0.229 0.369 0.544 0.369 0.893s-0.141 0.664-0.369 0.893l-12.89 12.893c-0.229 0.228-0.544 0.369-0.893 0.369s-0.664-0.141-0.893-0.369l0 0-0.598-0.595c-0.23-0.229-0.372-0.546-0.372-0.896s0.142-0.667 0.372-0.896l11.398-11.395-11.398-11.402c-0.229-0.229-0.371-0.545-0.371-0.894s0.142-0.666 0.371-0.894v0l0.595-0.595c0.229-0.23 0.546-0.372 0.896-0.372s0.667 0.142 0.896 0.372l12.886 12.89z"></path>
        </symbol>
        <symbol id="icon-touch" viewBox="0 0 34 34">
        <path fill="#7eb101" style="fill: var(--color1, #7eb101)" d="M15.5 1.333c2.023 0 3.75 0.706 5.184 2.117 1.433 1.411 2.15 3.128 2.15 5.15 0 1.156-0.25 2.244-0.75 3.267-0.515 1.040-1.229 1.91-2.1 2.588l-0.017 0.012h-1.133v-1.667c0.627-0.495 1.128-1.12 1.47-1.836l0.013-0.031c0.326-0.677 0.517-1.471 0.517-2.31 0-0.008-0-0.016-0-0.024v0.001c0-1.467-0.523-2.711-1.567-3.733s-2.3-1.534-3.767-1.534c-1.466 0-2.722 0.511-3.766 1.534s-1.567 2.266-1.567 3.733c0 0.822 0.172 1.6 0.517 2.333 0.355 0.747 0.856 1.372 1.472 1.859l0.011 0.008v2.4c-1.227-0.632-2.223-1.564-2.915-2.701l-0.018-0.032c-0.67-1.086-1.067-2.403-1.067-3.812 0-0.019 0-0.039 0-0.058l-0 0.003c0-2.022 0.717-3.739 2.15-5.15s3.161-2.117 5.183-2.117zM14.234 29.333c-0.378 0-0.734-0.072-1.067-0.216-0.337-0.145-0.624-0.342-0.867-0.584l-6.866-6.866 1.866-1.934c0.311-0.31 0.661-0.55 1.050-0.716 0.214-0.095 0.464-0.151 0.727-0.151 0.174 0 0.343 0.024 0.503 0.070l-0.013-0.003 2.6 0.6v-10.866c0-0.934 0.322-1.723 0.967-2.367 0.644-0.644 1.433-0.967 2.366-0.967 0.934 0 1.723 0.323 2.367 0.967s0.967 1.433 0.967 2.367v5.733h0.866c0.111 0 0.211 0.022 0.3 0.067s0.19 0.088 0.3 0.133l4.934 2.4c0.533 0.244 0.927 0.639 1.183 1.183 0.255 0.545 0.328 1.106 0.217 1.684l-1.2 7.266c-0.106 0.647-0.446 1.2-0.929 1.58l-0.005 0.004c-0.462 0.383-1.061 0.616-1.714 0.616-0.007 0-0.013-0-0.020-0h-8.532zM13.967 27.333h9.367l1.433-8.3-6.1-3.033h-1.833v-7.333c0-0.4-0.123-0.723-0.367-0.967s-0.567-0.367-0.967-0.367-0.722 0.123-0.966 0.367c-0.245 0.244-0.367 0.567-0.367 0.967v13.3l-5.133-1.1-0.767 0.766 5.7 5.7zM23.334 27.333v0z"></path>
        </symbol>
        <symbol id="icon-launch" viewBox="0 0 34 34">
        <path fill="#7eb101" style="fill: var(--color1, #7eb101)" d="M7.233 13.633l3.534 1.5c0.4-0.8 0.827-1.588 1.283-2.366s0.939-1.522 1.45-2.234l-2.633-0.533-3.634 3.633zM12.367 16.333l4.433 4.434c1.383-0.632 2.553-1.289 3.663-2.027l-0.096 0.060c1.11-0.733 2.010-1.444 2.7-2.133 1.8-1.8 3.122-3.645 3.966-5.534s1.3-4.022 1.367-6.4c-2.378 0.067-4.511 0.523-6.4 1.367s-3.733 2.167-5.533 3.967c-0.69 0.689-1.4 1.589-2.134 2.7-0.678 1.014-1.334 2.183-1.899 3.404l-0.067 0.162zM20 13.133c-0.444-0.444-0.667-0.994-0.667-1.65 0-0.655 0.223-1.205 0.667-1.65s0.994-0.666 1.65-0.666 1.206 0.222 1.65 0.666c0.444 0.445 0.667 0.995 0.667 1.65s-0.223 1.206-0.667 1.65c-0.444 0.445-0.994 0.667-1.65 0.667s-1.206-0.222-1.65-0.667zM19.5 25.9l3.633-3.633-0.533-2.634c-0.711 0.512-1.456 0.995-2.233 1.45-0.778 0.456-1.567 0.884-2.367 1.284l1.5 3.533zM30.367 2.767c0.2 3.022-0.178 5.777-1.134 8.266-0.955 2.49-2.533 4.834-4.733 7.034l-0.067 0.066-0.066 0.067 0.733 3.667c0.067 0.333 0.050 0.655-0.050 0.966-0.1 0.312-0.272 0.59-0.517 0.834l-5.7 5.733-2.833-6.6-5.667-5.667-6.6-2.833 5.734-5.7c0.244-0.244 0.522-0.417 0.833-0.517s0.633-0.116 0.967-0.050l3.666 0.734c0.019-0.020 0.041-0.036 0.066-0.049l0.001-0.001c0.026-0.014 0.048-0.030 0.067-0.050l0-0c2.2-2.2 4.544-3.784 7.033-4.75s5.244-1.35 8.267-1.15zM5.967 21.167c0.777-0.778 1.727-1.173 2.85-1.184 1.122-0.010 2.072 0.373 2.85 1.15 0.777 0.778 1.16 1.728 1.15 2.85-0.011 1.123-0.406 2.073-1.184 2.85-0.577 0.578-1.472 1.056-2.683 1.434s-3.028 0.733-5.45 1.066c0.333-2.422 0.683-4.244 1.050-5.466s0.839-2.123 1.417-2.7zM7.367 22.6c-0.311 0.333-0.59 0.856-0.834 1.567s-0.455 1.622-0.633 2.733c1.111-0.178 2.022-0.389 2.733-0.633 0.711-0.245 1.234-0.523 1.567-0.834 0.422-0.377 0.639-0.85 0.65-1.416 0.001-0.018 0.001-0.040 0.001-0.061 0-0.555-0.223-1.057-0.584-1.423l0 0c-0.366-0.361-0.869-0.584-1.423-0.584-0.021 0-0.043 0-0.064 0.001l0.003-0c-0.565 0.001-1.071 0.252-1.414 0.648l-0.002 0.002z"></path>
        </symbol>

        <symbol id="icon-Stars" viewBox="0 0 202 32">
        <path fill="#ffe550" style="fill: var(--color1, #ffe550)" d="M15.421 1.037c0.584-1.383 2.575-1.383 3.159 0l3.449 8.164c0.247 0.583 0.804 0.982 1.443 1.032l8.952 0.707c1.517 0.12 2.132 1.983 0.976 2.958l-6.821 5.752c-0.487 0.411-0.7 1.056-0.551 1.67l2.084 8.6c0.353 1.457-1.257 2.609-2.556 1.828l-7.664-4.609c-0.547-0.329-1.236-0.329-1.783 0l-7.664 4.609c-1.299 0.781-2.909-0.371-2.556-1.828l2.084-8.6c0.149-0.614-0.064-1.259-0.551-1.67l-6.821-5.752c-1.156-0.975-0.541-2.838 0.976-2.958l8.952-0.707c0.639-0.050 1.196-0.449 1.443-1.032l3.449-8.164z"></path>
        <path fill="#ffe550" style="fill: var(--color1, #ffe550)" d="M57.421 1.037c0.584-1.383 2.575-1.383 3.159 0l3.449 8.164c0.247 0.583 0.804 0.982 1.443 1.032l8.952 0.707c1.517 0.12 2.132 1.983 0.976 2.958l-6.821 5.752c-0.487 0.411-0.7 1.056-0.551 1.67l2.084 8.6c0.353 1.457-1.257 2.609-2.556 1.828l-7.664-4.609c-0.548-0.329-1.236-0.329-1.783 0l-7.664 4.609c-1.299 0.781-2.909-0.371-2.556-1.828l2.084-8.6c0.149-0.614-0.064-1.259-0.551-1.67l-6.821-5.752c-1.156-0.975-0.541-2.838 0.976-2.958l8.952-0.707c0.639-0.050 1.196-0.449 1.443-1.032l3.449-8.164z"></path>
        <path fill="#ffe550" style="fill: var(--color1, #ffe550)" d="M99.421 1.037c0.584-1.383 2.575-1.383 3.159 0l3.449 8.164c0.247 0.583 0.804 0.982 1.443 1.032l8.952 0.707c1.517 0.12 2.132 1.983 0.976 2.958l-6.821 5.752c-0.487 0.411-0.7 1.056-0.551 1.67l2.084 8.6c0.353 1.457-1.257 2.609-2.556 1.828l-7.664-4.609c-0.548-0.329-1.236-0.329-1.783 0l-7.664 4.609c-1.299 0.781-2.909-0.371-2.556-1.828l2.084-8.6c0.149-0.614-0.064-1.259-0.551-1.67l-6.821-5.752c-1.156-0.975-0.541-2.838 0.976-2.958l8.952-0.707c0.639-0.050 1.196-0.449 1.443-1.032l3.449-8.164z"></path>
        <path fill="#ffe550" style="fill: var(--color1, #ffe550)" d="M141.421 1.037c0.584-1.383 2.575-1.383 3.159 0l3.449 8.164c0.247 0.583 0.804 0.982 1.443 1.032l8.952 0.707c1.517 0.12 2.132 1.983 0.976 2.958l-6.821 5.752c-0.487 0.411-0.7 1.056-0.551 1.67l2.084 8.6c0.353 1.457-1.257 2.609-2.556 1.828l-7.664-4.609c-0.548-0.329-1.236-0.329-1.783 0l-7.664 4.609c-1.299 0.781-2.909-0.371-2.556-1.828l2.084-8.6c0.149-0.614-0.064-1.259-0.551-1.67l-6.821-5.752c-1.156-0.975-0.541-2.838 0.976-2.958l8.952-0.707c0.639-0.050 1.196-0.449 1.443-1.032l3.449-8.164z"></path>
        <path fill="#ffe550" style="fill: var(--color1, #ffe550)" d="M183.421 1.037c0.584-1.383 2.575-1.383 3.159 0l3.449 8.164c0.247 0.583 0.804 0.982 1.443 1.032l8.953 0.707c1.516 0.12 2.132 1.983 0.976 2.958l-6.821 5.752c-0.487 0.411-0.7 1.056-0.551 1.67l2.084 8.6c0.353 1.457-1.257 2.609-2.556 1.828l-7.664-4.609c-0.548-0.329-1.236-0.329-1.783 0l-7.664 4.609c-1.299 0.781-2.909-0.371-2.556-1.828l2.084-8.6c0.149-0.614-0.064-1.259-0.551-1.67l-6.821-5.752c-1.156-0.975-0.541-2.838 0.976-2.958l8.952-0.707c0.639-0.050 1.196-0.449 1.443-1.032l3.449-8.164z"></path>
        </symbol>
    </defs>
</svg>
